<?xml version="1.0" standalone="no"?>
<!DOCTYPE svg PUBLIC "-//W3C//DTD SVG 1.1//EN" "http://www.w3.org/Graphics/SVG/1.1/DTD/svg11.dtd" >
<svg xmlns="http://www.w3.org/2000/svg">
<metadata>Generated by IcoMoon</metadata>
<defs>
<font id="icomoon" horiz-adv-x="1024">
<font-face units-per-em="1024" ascent="960" descent="-64" />
<missing-glyph horiz-adv-x="1024" />
<glyph unicode="&#x20;" horiz-adv-x="512" d="" />
<glyph unicode="&#xe900;" glyph-name="D" d="M275.2-51.2c-6.4 0-12.8 6.4-19.2 12.8s-6.4 19.2 0 25.6l25.6 38.4-25.6 12.8c-224 134.4-300.8 422.4-179.2 652.8 83.2 160 256 262.4 435.2 262.4 76.8 0 160-19.2 230.4-57.6 243.2-128 332.8-422.4 204.8-665.6-83.2-160-249.6-262.4-435.2-262.4-25.6 0-51.2 0-76.8 6.4h-6.4l-153.6-25.6c0 0 0 0 0 0zM512 908.8c-166.4 0-320-89.6-396.8-243.2-108.8-211.2-38.4-473.6 166.4-595.2l44.8-25.6c6.4 0 6.4-6.4 12.8-12.8 0-6.4 0-12.8 0-19.2l-12.8-19.2 108.8 19.2c0 0 6.4 0 6.4 0h12.8c25.6-6.4 44.8-6.4 70.4-6.4 166.4 0 320 89.6 396.8 243.2 115.2 217.6 32 492.8-185.6 608-76.8 32-153.6 51.2-224 51.2zM518.4 172.8c-83.2 0-160 38.4-204.8 96-6.4 6.4-6.4 25.6 6.4 32s25.6 6.4 32-6.4c38.4-51.2 102.4-83.2 172.8-83.2s128 32 172.8 83.2c6.4 6.4 19.2 12.8 32 6.4s12.8-19.2 6.4-32c-57.6-57.6-134.4-96-217.6-96zM448 512c0-38.4 32-64 64-64s64 32 64 64c0 38.4-32 64-64 64s-64-25.6-64-64zM179.2 512c0-38.4 32-64 64-64 38.4 0 64 32 64 64 0 38.4-32 64-64 64-38.4 0-64-25.6-64-64zM716.8 512c0-38.4 32-64 64-64 38.4 0 64 32 64 64 0 38.4-32 64-64 64-38.4 0-64-25.6-64-64z" />
<glyph unicode="&#xe901;" glyph-name="400" d="M513.536 47.616c-55.296 0.512-110.080 0.512-165.376 1.024-20.992 0-41.984 1.024-62.976 2.048-17.408 1.024-35.328 2.048-52.736 4.096-15.872 1.536-31.744 4.096-47.104 7.168-14.336 3.072-28.16 7.168-41.984 13.312-14.848 6.656-27.648 15.872-37.376 28.672-7.168 9.216-11.776 18.944-15.36 29.696-4.096 12.8-6.656 26.112-7.68 39.936-1.536 16.384-1.536 33.28-1.024 49.664 0.512 9.216 1.536 17.92 2.56 27.136 2.048 17.92 6.144 35.328 10.752 52.224 6.144 24.064 13.824 47.616 23.040 70.656 7.168 18.432 15.36 36.864 24.064 54.784 10.752 22.528 22.528 44.032 35.328 65.536 18.432 30.208 38.912 59.392 61.44 87.040 20.992 25.6 43.52 49.152 68.608 70.656 18.432 15.872 37.376 30.208 58.368 42.496 16.896 10.24 34.304 18.944 52.224 26.112 9.728 3.584 19.456 7.168 29.184 9.728 11.264 3.072 23.040 5.632 34.816 6.656 17.92 2.56 36.352 2.56 54.784 1.024 12.288-1.024 24.064-3.072 35.84-6.144 12.288-3.072 24.576-6.656 36.352-11.264 18.432-7.168 35.84-15.872 52.224-26.112 17.408-10.752 33.792-22.528 49.664-35.328 27.136-22.016 51.2-47.104 73.728-73.728 22.016-26.112 41.472-53.76 59.904-82.432 12.8-20.48 24.576-41.472 35.328-62.976 10.752-20.992 20.48-43.008 29.184-64.512 12.8-31.232 22.528-64 29.696-96.768 3.072-13.824 5.12-28.16 6.656-42.496 2.048-16.896 1.536-34.304 0.512-51.2s-3.072-33.28-8.192-49.152c-5.12-15.36-12.288-28.672-24.064-39.936-8.704-8.192-18.432-14.336-28.672-19.456-17.408-7.68-35.84-12.8-54.272-15.872-8.704-1.024-16.896-3.072-25.6-4.096-15.36-1.536-31.232-3.072-46.592-4.096-58.368-3.584-117.248-3.584-175.616-3.584-24.064 0-46.592 0-69.632-0.512 0 0.512 0 0 0 0v0zM612.352 336.384c0 2.56 0 5.12 0 7.168 0 21.504-2.048 43.008-6.656 63.488-3.584 15.872-9.216 31.232-17.92 44.544-12.8 19.968-30.208 32.768-53.248 38.912-18.432 4.608-36.352 4.608-54.784-0.512-17.408-4.608-32.256-13.312-44.032-27.136-7.68-8.704-13.312-18.432-17.408-29.184-8.192-19.456-11.776-39.424-13.824-60.416-1.536-14.848-1.536-30.208-1.536-45.056 0-16.896 1.024-33.792 3.584-50.688 2.048-14.336 5.632-28.672 11.776-42.496 14.336-31.744 38.912-50.688 73.216-56.32 7.68-1.024 15.872-1.536 23.552-1.024 13.824 1.024 27.136 4.096 39.424 10.752 16.384 8.704 28.16 21.504 36.864 37.888 8.192 15.36 13.312 32.256 16.384 49.664 3.584 20.992 5.12 40.448 4.608 60.416v0zM848.896 336.384c0 14.336-0.512 28.672-2.048 43.52-1.536 14.336-4.096 28.672-8.704 42.496-4.096 12.8-9.216 24.576-17.408 35.328-12.288 16.896-28.672 28.16-48.64 33.28-17.92 4.608-35.84 4.608-53.76 0.512-20.48-5.12-37.376-15.872-50.176-32.768-9.728-13.312-16.384-28.16-20.48-44.032-5.12-18.944-7.168-37.888-8.192-57.344-0.512-9.216 0-18.432 0-27.648 0-18.944 1.536-37.376 4.608-55.808 2.56-15.36 6.656-30.72 14.336-44.544 14.848-27.136 37.888-43.52 68.608-48.64 12.288-2.048 25.088-1.536 37.376 0.512 16.896 3.072 32.256 10.24 45.056 22.016 9.728 9.216 16.896 19.968 22.016 31.744 7.168 15.36 10.752 31.232 13.312 47.616 3.072 17.408 4.096 35.84 4.096 53.76v0zM351.232 307.712c-1.024 3.072-0.512 5.632-0.512 7.68 0 54.272 0 108.544 0 162.816 0 1.536 0 3.584 0 5.12 0 2.048-0.512 4.096-2.048 5.632-1.024 1.024-2.048 1.536-2.56 2.56-1.536 2.048-3.584 2.56-6.144 2.56-14.848 0-30.208 0-45.056 0-2.56 0-4.096-1.024-5.632-3.072-0.512-1.024-1.024-1.536-1.536-2.56-19.968-29.184-40.448-57.856-60.416-87.040-22.016-31.744-44.544-64-66.56-95.744-2.048-3.072-3.072-5.632-3.072-9.216 0-13.824 0-27.648 0-41.472 0-1.024 0-2.048 0-2.56 0.512-1.024 0.512-2.56 1.536-3.584 4.096-5.632 5.632-5.632 12.288-5.632 33.28 0 67.072 0 100.352 0 1.536 0 3.584 0 5.12 0 1.024 0 2.048-0.512 3.584-1.024 0-2.048 0-4.096 0-6.144 0-13.312 0-27.136 0-40.448 0-3.072 0.512-5.632 3.072-7.168 0.512-0.512 1.024-1.024 1.536-1.536 1.536-2.048 3.584-2.56 6.144-2.56 16.384 0 33.28 0 49.664 0 2.048 0 4.096 1.024 5.632 2.56 5.632 5.632 5.12 4.608 5.12 11.776 0 1.024 0 2.048 0 3.072 0 11.776 0 24.064 0 35.84 0 2.048-0.512 4.096 1.024 6.144 1.536 0 3.584 0 5.12 0 6.656 0 13.312 0 19.968 0 1.536 0 3.072 0 3.584 0.512 3.584 3.072 7.168 5.632 7.168 11.264-0.512 13.312 0 27.136 0 40.448 0 3.072-0.512 5.632-3.072 7.68-0.512 0.512-1.024 1.024-1.536 1.536-1.536 2.048-3.584 2.56-6.144 2.56-6.656 0-13.312 0-19.968 0-2.56 0-4.608 0-6.656 0v0zM1.536 581.632c0 29.184 3.584 51.2 10.752 73.216 6.144 18.944 14.848 36.864 26.112 53.248 8.192 12.288 17.92 24.064 28.672 34.816 14.336 14.336 30.208 27.136 47.104 38.4 10.24 7.168 21.504 13.312 32.768 18.944 18.944 10.24 38.912 18.432 59.392 25.6s41.472 13.312 62.464 18.432c25.6 6.144 51.2 10.752 76.8 13.824 12.8 1.536 26.112 3.584 38.912 4.608 11.264 1.024 22.528 2.048 33.792 2.56 10.24 0.512 20.48 1.024 30.208 2.048 1.024 0 2.048 0 3.584 0 30.72 0.512 61.44 2.048 91.648 1.024 17.408-0.512 34.816-1.024 52.224-2.048 12.288-0.512 24.576-1.536 36.864-3.072 11.776-1.024 23.552-2.048 35.328-3.584 17.92-2.56 35.84-5.12 54.272-8.192 15.872-3.072 31.744-6.656 47.104-10.24 18.944-4.608 37.888-10.752 56.32-17.408 13.312-4.608 26.112-10.24 38.4-15.872 14.336-6.656 28.16-14.336 41.472-22.528 11.264-7.168 22.528-15.36 32.768-24.064 19.456-16.384 36.352-35.328 50.176-56.832 7.68-11.776 13.824-24.576 18.944-37.376 6.144-15.872 10.24-31.744 12.8-48.64 2.048-13.312 2.56-27.136 2.048-40.448-0.512-13.824-2.56-27.136-6.144-40.448-3.072-10.24-8.704-18.944-16.384-26.624-7.68-8.192-16.896-13.824-27.136-17.408-13.312-4.608-26.624-5.12-39.936-0.512-15.872 5.12-28.16 15.36-37.376 28.672-4.096 5.632-7.168 11.264-10.752 16.896-14.848 24.064-31.232 47.104-49.664 69.12-17.92 20.992-36.864 40.96-57.856 59.392-18.432 16.384-37.888 31.232-58.368 45.056-14.336 9.728-29.696 17.92-45.056 26.112-24.576 12.8-50.688 22.016-77.312 29.184-16.896 4.608-34.304 7.68-52.224 9.216s-36.352 2.048-54.784 1.024c-11.776-0.512-24.064-2.048-35.84-4.096-21.504-3.584-41.984-8.704-62.464-15.872-16.896-5.632-32.768-13.312-48.64-20.992-18.432-9.216-35.84-19.968-52.224-31.744-22.528-15.872-43.52-33.792-63.488-53.248-28.672-28.16-54.272-58.88-77.312-91.648-7.168-10.752-14.848-21.504-21.504-32.256-4.608-7.168-10.24-13.312-17.408-17.92-17.408-11.264-36.864-15.36-57.344-11.264-10.752 2.048-19.968 7.168-28.16 14.336-5.12 4.608-9.216 9.728-13.312 15.36-2.048 3.072-3.584 6.144-4.608 9.728-3.584 15.872-5.632 32.256-5.632 43.52v0zM537.088 337.408c0.512-15.36 0-30.72-1.024-46.080-1.024-9.728-2.048-18.944-4.608-28.16-1.024-3.584-2.56-7.68-4.608-10.752-6.144-12.288-22.528-14.336-32.256-6.656-2.56 2.048-4.096 4.608-5.632 7.168-4.096 8.192-6.656 16.896-7.68 26.112-2.048 12.8-2.56 26.112-2.56 39.424 0 16.384 0 33.28 0.512 49.664 0.512 11.264 1.536 23.040 3.584 34.304 1.536 7.168 3.584 13.824 6.656 19.968 6.656 12.8 23.040 12.8 30.72 7.168 3.072-2.048 5.12-5.12 6.656-8.192 3.584-6.656 5.632-13.312 7.168-20.992 2.048-12.288 3.072-24.064 3.584-36.352 0-9.216-0.512-17.92-0.512-26.624v0zM773.632 337.408c0.512-14.336 0-28.672-1.024-43.52-1.024-10.24-1.536-20.48-4.608-30.72-1.024-3.584-2.56-7.68-4.096-10.752-6.656-13.312-23.040-14.336-31.744-8.192-2.56 2.048-4.608 4.608-6.144 7.168-4.096 7.68-6.656 15.872-7.68 24.576-1.536 10.752-2.56 22.016-2.56 33.28 0 13.824-0.512 28.16-0.512 42.496 0 16.896 1.024 33.28 4.096 49.664 1.536 7.168 3.584 13.824 6.656 19.968 6.656 12.288 23.552 13.312 31.744 6.656 2.048-1.536 3.584-3.584 4.608-5.632 2.048-4.096 4.096-8.704 5.632-13.312 3.584-9.728 4.096-19.456 5.12-29.184 0.512-14.336 0.512-28.16 0.512-42.496v0zM279.040 375.296c0.512-6.144 0.512-61.952 0-66.56-0.512 0-1.536-0.512-2.56-0.512-13.824 0-27.648 0-40.96 0-0.512 0-1.024 0.512-1.536 0.512 0 2.048 1.024 3.072 2.048 4.608 8.704 12.288 16.896 24.576 25.6 37.376 4.096 6.144 8.704 12.8 12.8 18.944 1.536 1.024 2.56 3.072 4.608 5.632v0z" />
<glyph unicode="&#xe902;" glyph-name="-" d="M512 896c-246.4 0-448-201.6-448-448s201.6-448 448-448 448 201.6 448 448c0 246.4-201.6 448-448 448zM512 35.2c-227.2 0-412.8 185.6-412.8 412.8s185.6 412.8 412.8 412.8 412.8-185.6 412.8-412.8c0-227.2-185.6-412.8-412.8-412.8zM672 422.4c41.6 25.6 67.2 67.2 67.2 118.4 0 76.8-64 140.8-140.8 140.8-32 0-64-9.6-86.4-32-22.4 19.2-54.4 32-86.4 32-76.8 0-140.8-64-140.8-140.8 0-51.2 25.6-96 67.2-118.4-76.8-25.6-131.2-92.8-131.2-169.6 0-9.6 6.4-16 16-16s16 6.4 16 16c0 83.2 76.8 147.2 169.6 147.2s169.6-67.2 169.6-147.2c0-9.6 6.4-16 16-16s16 6.4 16 16c0 76.8-54.4 144-131.2 169.6 41.6 25.6 67.2 67.2 67.2 118.4 0 32-9.6 60.8-28.8 83.2 19.2 12.8 41.6 22.4 64 22.4 57.6 0 105.6-48 105.6-105.6s-48-105.6-105.6-105.6c-9.6 0-16-6.4-16-16 0 0 0 0 0 0s0 0 0 0c0-9.6 6.4-16 16-16 92.8 0 169.6-67.2 169.6-147.2 0-9.6 6.4-16 16-16s16 6.4 16 16c6.4 73.6-48 140.8-124.8 166.4zM425.6 435.2c-57.6 0-105.6 48-105.6 105.6s48 105.6 105.6 105.6 105.6-48 105.6-105.6c0-57.6-48-105.6-105.6-105.6z" />
<glyph unicode="&#xe903;" glyph-name="2" d="M513.6 612.8c-89.6 0-163.2-73.6-163.2-163.2s73.6-163.2 163.2-163.2 163.2 73.6 163.2 163.2-73.6 163.2-163.2 163.2zM513.6 305.6c-78.4 0-144 64-144 144 0 78.4 64 144 144 144 78.4 0 144-64 144-144-1.6-80-65.6-144-144-144zM1017.6 523.2l-1.6 8-131.2 12.8c-9.6 35.2-22.4 68.8-41.6 100.8l83.2 102.4-4.8 6.4c-30.4 40-65.6 75.2-105.6 105.6l-6.4 4.8-102.4-83.2c-32 19.2-65.6 32-100.8 41.6l-12.8 131.2-8 1.6c-56 8-92.8 8-148.8 0l-8-1.6-12.8-131.2c-35.2-9.6-68.8-22.4-100.8-41.6l-102.4 83.2-6.4-4.8c-40-30.4-75.2-65.6-105.6-105.6l-4.8-6.4 83.2-102.4c-19.2-32-32-65.6-41.6-100.8l-131.2-12.8-1.6-8c-4.8-28.8-6.4-51.2-6.4-75.2 0-22.4 1.6-46.4 6.4-75.2l1.6-8 131.2-12.8c9.6-35.2 22.4-68.8 41.6-100.8l-83.2-102.4 4.8-6.4c30.4-40 65.6-75.2 105.6-105.6l6.4-4.8 102.4 83.2c32-19.2 65.6-32 100.8-41.6l12.8-131.2 8-1.6c28.8-4.8 51.2-6.4 75.2-6.4s46.4 1.6 75.2 6.4l8 1.6 12.8 131.2c35.2 9.6 68.8 22.4 100.8 41.6l102.4-83.2 6.4 4.8c40 30.4 75.2 65.6 105.6 105.6l4.8 6.4-83.2 102.4c19.2 32 32 65.6 41.6 100.8l131.2 12.8 1.6 8c4.8 27.2 6.4 51.2 6.4 75.2-1.6 24-3.2 48-8 75.2zM1000 384l-131.2-12.8-1.6-6.4c-9.6-38.4-24-73.6-44.8-107.2l-3.2-6.4 83.2-100.8c-25.6-33.6-57.6-65.6-91.2-91.2l-100.8 83.2-6.4-3.2c-33.6-20.8-68.8-35.2-107.2-44.8l-6.4-1.6-12.8-131.2c-48-6.4-80-6.4-129.6 0l-12.8 131.2-6.4 1.6c-38.4 9.6-73.6 24-107.2 44.8l-6.4 3.2-100.8-83.2c-33.6 25.6-65.6 57.6-91.2 91.2l83.2 100.8-3.2 6.4c-20.8 33.6-35.2 68.8-44.8 107.2l-1.6 6.4-131.2 12.8c-3.2 24-4.8 44.8-4.8 64s1.6 40 4.8 64l131.2 12.8 1.6 6.4c9.6 38.4 24 73.6 44.8 107.2l3.2 6.4-83.2 100.8c25.6 33.6 57.6 65.6 91.2 91.2l100.8-83.2 6.4 3.2c33.6 20.8 68.8 35.2 107.2 44.8l6.4 1.6 12.8 131.2c48 6.4 81.6 6.4 129.6 0l12.8-131.2 6.4-1.6c38.4-9.6 73.6-24 107.2-44.8l6.4-3.2 100.8 83.2c33.6-25.6 65.6-57.6 91.2-91.2l-83.2-100.8 3.2-6.4c20.8-33.6 35.2-68.8 44.8-107.2l1.6-6.4 131.2-12.8c3.2-24 4.8-44.8 4.8-64s-1.6-40-4.8-64z" />
<glyph unicode="&#xe904;" glyph-name="3" d="M164.8 308h-29.6c-4 0-10.4 2.4-12.8 5.6 0 0-5.6 18.4-5.6 89.6 0 70.4 5.6 89.6 5.6 89.6 3.2 3.2 8.8 5.6 12.8 5.6h29.6c4 0 10.4 3.2 10.4 7.2v80c0 4-0.8 7.2-4.8 7.2h-48.8c-4 0-10.4-2.4-13.6-4.8 0 0-43.2-43.2-43.2-184.8s43.2-184.8 43.2-184.8c3.2-2.4 9.6-4.8 13.6-4.8h48c4 0 5.6 2.4 5.6 7.2v80c-2.4 4-6.4 7.2-10.4 7.2zM395.2 598.4h348v-18.4h-348v18.4zM882.4 592v217.6h-609.6v-218.4h-84l0.8-379.2h83.2v-127.2h610.4v127.2h77.6v379.2l-78.4 0.8zM344.8 756h466.4v-220h-466.4v220zM811.2 157.6h-466.4v124h466.4v-124zM395.2 712.8h348v-18.4h-348v18.4zM395.2 658.4h348v-18.4h-348v18.4z" />
<glyph unicode="&#xe905;" glyph-name="31" d="M640 896h-512v-896h768v640l-256 256zM805.6 640h-165.6v165.6l165.6-165.6zM832 64h-640v768h384v-256h256v-512zM512 320l-8 13.6c42.4 20.8 72 64 72 114.4 0 70.4-57.6 128-128 128h-192v-448h64v192h128l128-192h64l-128 192zM320 384v128h128c35.2 0 64-28.8 64-64s-28.8-64-64-64h-128z" />
<glyph unicode="&#xe906;" glyph-name="4" d="M512 908.8c-246.4 0-451.2-198.4-460.8-441.6 0 0 0 0 0-3.2s0-3.2 0-6.4 0-6.4 0-9.6c0-252.8 208-460.8 460.8-460.8s460.8 208 460.8 460.8c0 252.8-208 460.8-460.8 460.8zM860.8 419.2c-9.6-22.4-19.2-38.4-35.2-41.6-19.2-6.4-38.4 3.2-38.4 3.2s-3.2 0-3.2 0c-35.2 9.6-28.8 86.4-25.6 115.2 0 6.4 0 12.8-3.2 16s-9.6 6.4-16 6.4c-41.6-3.2-51.2 54.4-51.2 54.4-6.4 86.4 131.2 131.2 156.8 137.6 35.2-44.8 60.8-96 76.8-150.4-67.2-32-64-118.4-60.8-140.8zM89.6 438.4c48-6.4 96-19.2 105.6-28.8 3.2-3.2 6.4-3.2 9.6-3.2s89.6-12.8 128 41.6c0 3.2 3.2 3.2 3.2 6.4 3.2 9.6 6.4 19.2 9.6 19.2 0 0 9.6-3.2 25.6-25.6 9.6-12.8 35.2-28.8 70.4-9.6 3.2 0 12.8-3.2 22.4-9.6 12.8-9.6 19.2-28.8 22.4-54.4 0-6.4 3.2-9.6 9.6-12.8 3.2-3.2 9.6-3.2 16-3.2 0 0 48 12.8 76.8-6.4 12.8-6.4 19.2-19.2 22.4-35.2-3.2-6.4-19.2-19.2-70.4-19.2-3.2 0-6.4 0-6.4 0-28.8-9.6-80-48-67.2-121.6-3.2-9.6-16-44.8-54.4-41.6l-176-6.4c-3.2 0-3.2 0-6.4 0-83.2 83.2-137.6 192-140.8 310.4zM512 25.6c-86.4 0-169.6 25.6-236.8 73.6l137.6 3.2c57.6-3.2 86.4 44.8 92.8 73.6 0 3.2 0 6.4 0 6.4-9.6 54.4 28.8 76.8 38.4 83.2 41.6 0 73.6 9.6 89.6 25.6 12.8 12.8 16 28.8 12.8 32 0 0 0 3.2 0 3.2-6.4 28.8-19.2 51.2-41.6 64-28.8 16-64 16-86.4 12.8-6.4 25.6-16 44.8-35.2 60.8-25.6 19.2-51.2 16-54.4 16s-6.4 0-6.4-3.2c-12.8-9.6-22.4-6.4-25.6-6.4-6.4 12.8-32 48-64 41.6-25.6-3.2-35.2-32-38.4-44.8-22.4-28.8-70.4-25.6-83.2-25.6-25.6 16-89.6 28.8-124.8 32 16 217.6 198.4 393.6 422.4 393.6 118.4 0 227.2-51.2 304-131.2-51.2-19.2-176-70.4-169.6-176 6.4-28.8 25.6-73.6 70.4-86.4-3.2-38.4-6.4-118.4 54.4-137.6 6.4-3.2 19.2-9.6 38.4-9.6 9.6 0 19.2 0 28.8 6.4 25.6 9.6 44.8 35.2 57.6 70.4 0 3.2 0 6.4 0 9.6 0 0-9.6 70.4 28.8 99.2 3.2-22.4 6.4-44.8 6.4-70.4 6.4-227.2-182.4-416-416-416zM563.2 768c-16 16-32 22.4-32 22.4-3.2 0-6.4 3.2-9.6 3.2-16 0-32-6.4-41.6-19.2-22.4-25.6-19.2-70.4-19.2-86.4-16-22.4-22.4-41.6-22.4-64 3.2-32 25.6-51.2 28.8-51.2 3.2-3.2 6.4-3.2 9.6-3.2 6.4 0 9.6 0 12.8 0 51.2 0 89.6 32 105.6 86.4 3.2 12.8 0 35.2 0 48 0 16-22.4 57.6-32 64zM563.2 662.4c-12.8-41.6-35.2-60.8-73.6-57.6-3.2 3.2-9.6 12.8-9.6 22.4 0 12.8 3.2 25.6 16 41.6 3.2 3.2 6.4 9.6 3.2 16-3.2 16-3.2 51.2 9.6 67.2 3.2 3.2 6.4 3.2 9.6 6.4 3.2-3.2 12.8-6.4 19.2-12.8s22.4-38.4 25.6-48c3.2-22.4 3.2-32 0-35.2z" />
<glyph unicode="&#xe907;" glyph-name="5" d="M512 908.8c-203.2 0-368-164.8-368-368s288.8-514.4 288.8-514.4c44-51.2 116-52 160 0 0 0 288.8 311.2 288.8 514.4s-166.4 368-369.6 368zM512 381.6c-94.4 0-170.4 76-170.4 170.4s76 170.4 170.4 170.4 170.4-76 170.4-170.4-76-170.4-170.4-170.4z" />
<glyph unicode="&#xe908;" glyph-name="6" d="M512 921.6c-262.4 0-473.6-211.2-473.6-473.6s211.2-473.6 473.6-473.6c124.8 0 246.4 51.2 332.8 137.6 16 6.4 28.8 12.8 38.4 19.2-12.8 32-57.6 108.8-150.4 192-48-38.4-131.2 16-195.2 73.6-64 60.8-124.8 134.4-92.8 188.8-92.8 86.4-172.8 121.6-204.8 131.2-12.8-22.4-22.4-48-28.8-86.4 0 0-6.4-172.8 208-364.8 163.2-153.6 304-172.8 358.4-172.8-76.8-57.6-169.6-89.6-265.6-89.6-243.2 0-441.6 198.4-441.6 441.6s198.4 441.6 441.6 441.6c243.2 0 441.6-198.4 441.6-441.6 0-9.6 6.4-16 16-16s16 6.4 16 16c0 265.6-211.2 476.8-473.6 476.8zM249.6 736c38.4-12.8 115.2-48 208-134.4 16 19.2 54.4 73.6-12.8 124.8 0 3.2-121.6 115.2-195.2 9.6zM876.8 339.2c-57.6 64-112 19.2-128 0 92.8-83.2 134.4-156.8 153.6-192 96 80-25.6 192-25.6 192z" />
<glyph unicode="&#xe909;" glyph-name="7" d="M825.6 748.8h-627.2c-44.8-32 0-57.6 0-57.6h633.6c32 38.4-6.4 57.6-6.4 57.6zM889.6 908.8l-755.2 6.4c-108.8-6.4-115.2-121.6-115.2-121.6l6.4-448c6.4-102.4 115.2-121.6 115.2-121.6h326.4l313.6-224c38.4-19.2 51.2 12.8 51.2 12.8v217.6h76.8c96 19.2 108.8 108.8 108.8 108.8v460.8c-19.2 89.6-128 108.8-128 108.8zM953.6 345.6c0 0-6.4-70.4-70.4-70.4h-96c0 0-25.6 6.4-25.6-38.4v-172.8l-294.4 217.6h-332.8c0 0-57.6 6.4-64 57.6v441.6c0 0 0 76.8 57.6 76.8h748.8c0 0 70.4-19.2 70.4-70.4l6.4-441.6zM582.4 614.4h-390.4c-44.8-32 6.4-51.2 6.4-51.2h384c25.6 44.8 0 51.2 0 51.2z" />
<glyph unicode="&#xe90a;" glyph-name="8" d="M628.053 130.939l-138.050 75.852-162.323-143.36v6.827l-8.344-3.034-91.022 292.788-5.31-3.034-222.246 136.533 1021.724 339.058-394.43-701.63zM346.643 104.391l126.673 112.261-126.673 69.784v-182.044zM245.76 366.080l82.679-264.723v193.422h3.034l-6.068 3.034 453.594 356.504-549.167-292.788c0-0.759 15.929 4.551 15.929 4.551zM223.763 378.216l638.673 340.575 9.861-15.17-513.517-403.532 262.447-144.877 362.572 644.741-939.804-311.751 179.769-109.985z" />
<glyph unicode="&#xe90b;" glyph-name="9" d="M508.8 353.6c68.8 0 135.2 32 181.6 81.6 41.6 5.6 75.2 17.6 99.2 36 58.4 45.6 65.6 104 65.6 111.2 0 196-163.2 358.4-358.4 358.4-196 0-358.4-163.2-358.4-358.4v-26.4h133.6c16.8-112.8 113.6-202.4 236.8-202.4zM319.2 595.2c0 104 84.8 188.8 188.8 188.8 84.8 0 156.8-58.4 182.4-136.8 6.4-12.8 6.4-32.8 6.4-52s0-32.8-6.4-52c-7.2-20.8-16.8-39.2-29.6-56.8-25.6-1.6-55.2-0.8-89.6 4-1.6 0.8-3.2 0.8-4.8 0.8-12.8 0-26.4-12.8-26.4-26.4 0-11.2 8.8-21.6 20-24.8v-0.8c14.4-3.2 28.8-4.8 42.4-5.6-28-16.8-60-26.4-95.2-26.4-103.2-1.6-188 83.2-188 188zM502.4 888c169.6 0 306.4-136.8 306.4-300 0-4-8-56.8-72.8-85.6 3.2 6.4 5.6 13.6 8 20 6.4 26.4 12.8 45.6 12.8 72 0 19.2-6.4 45.6-12.8 65.6-32.8 104-130.4 176-235.2 176-126.4 0-234.4-97.6-240.8-228h-72c12.8 156.8 149.6 280 306.4 280zM606.4 308h-12.8l-78.4-91.2-91.2 84.8h-12.8c-196-39.2-332.8-169.6-332.8-319.2v-26.4h873.6v32.8c0 156-143.2 287.2-345.6 319.2zM130.4 14.4c12.8 111.2 117.6 202.4 273.6 235.2l111.2-104 97.6 111.2c150.4-32.8 267.2-130.4 280.8-241.6h-763.2z" />
<glyph unicode="&#xe90c;" glyph-name="10" d="M873.6 810.4c-199.2 199.2-524 199.2-723.2 0s-199.2-524 0-723.2c199.2-199.2 524-199.2 723.2 0 200 199.2 200 524 0 723.2v0zM540 142.4h-64v281.6h-281.6v64h281.6v282.4h64v-282.4h281.6v-64h-281.6v-281.6z" />
<glyph unicode="&#xe90d;" glyph-name="14" d="M790.4 807.2h-358.4c-56.8 0-102.4-45.6-102.4-102.4v-88h-199.2v-423.2c0-56.8 45.6-102.4 102.4-102.4v0h556.8c56.8 0 102.4 45.6 102.4 102.4v512c0.8 56-44.8 101.6-101.6 101.6zM330.4 213.6c0-39.2-32-72-72-72h-4.8c-39.2 0-72 32-72 72v352h147.2v-352zM841.6 213.6c0-39.2-32-72-72-72h-401.6c8.8 15.2 13.6 32.8 13.6 51.2v491.2c0 39.2 32 72 72 72h317.6c39.2 0 72-32 72-72l-1.6-470.4zM764.8 620.8h-307.2c-14.4 0-25.6-11.2-25.6-25.6s11.2-25.6 25.6-25.6h307.2c14.4 0 25.6 11.2 25.6 25.6s-11.2 25.6-25.6 25.6zM764.8 475.2h-307.2c-14.4 0-25.6-11.2-25.6-25.6s11.2-25.6 25.6-25.6h307.2c14.4 0 25.6 11.2 25.6 25.6 0 13.6-11.2 25.6-25.6 25.6zM764.8 326.4h-307.2c-14.4 0-25.6-11.2-25.6-25.6s11.2-25.6 25.6-25.6h307.2c14.4 0 25.6 11.2 25.6 25.6s-11.2 25.6-25.6 25.6z" />
<glyph unicode="&#xe90e;" glyph-name="uniE90E" d="M406.4 685.6h-211.2c-14.4 0-26.4-12-26.4-26.4s12-26.4 26.4-26.4h211.2c14.4 0 26.4 12 26.4 26.4s-12 26.4-26.4 26.4zM406.4 473.6h-211.2c-14.4 0-26.4-12-26.4-26.4s12-26.4 26.4-26.4h211.2c14.4 0 26.4 12 26.4 26.4 0 15.2-12 26.4-26.4 26.4zM756 452.8c28 24 46.4 60 46.4 100 0 72.8-59.2 132-132 132s-132-59.2-132-132c0-40 17.6-76 46.4-100-59.2-31.2-99.2-92.8-99.2-164 0-28 6.4-55.2 17.6-79.2h61.6c-16.8 22.4-26.4 49.6-26.4 79.2 0 72.8 59.2 132 132 132s132-59.2 132-132c0-29.6-9.6-56.8-26.4-79.2h61.6c11.2 24 17.6 51.2 17.6 79.2 0 71.2-40 132.8-99.2 164zM670.4 473.6c-44 0-79.2 35.2-79.2 79.2s35.2 79.2 79.2 79.2c44 0 79.2-35.2 79.2-79.2 0-43.2-35.2-79.2-79.2-79.2zM855.2 844h-687.2c-58.4 0-105.6-47.2-105.6-105.6v-580.8c0-58.4 47.2-105.6 105.6-105.6h687.2c58.4 0 105.6 47.2 105.6 105.6v580.8c0 58.4-47.2 105.6-105.6 105.6zM908 209.6v-105.6h-686.4c-58.4 0-105.6 47.2-105.6 105.6v475.2c0 58.4 47.2 105.6 105.6 105.6h580.8c58.4 0 105.6-47.2 105.6-105.6v-475.2zM406.4 262.4h-211.2c-14.4 0-26.4-12-26.4-26.4s12-26.4 26.4-26.4h211.2c14.4 0 26.4 12 26.4 26.4s-12 26.4-26.4 26.4z" />
<glyph unicode="&#xe90f;" glyph-name="1" d="M512 857.6c-535.2-0.8-480-332-460.8-360 33.6-58.4 96-28 107.2-0.8 69.6 128 189.6 244 353.6 244s292-127.2 349.6-242.4c29.6-57.6 87.2-51.2 112.8 0 16.8 37.6 67.2 359.2-462.4 359.2zM512 665.6c-208 0-383.2-257.6-383.2-456.8s172-168 383.2-168 383.2-31.2 383.2 168c0 199.2-175.2 456.8-383.2 456.8zM520 311.2c-80 0-144 46.4-144 126.4s64.8 124 144 124c80 0 144-44 144-124 0.8-80-64-126.4-144-126.4z" />
<glyph unicode="&#xe910;" glyph-name="21" d="M212 880h602.4c48 0 91.2-20.8 122.4-54.4s50.4-80 50.4-131.2v-488.8c0-50.4-20-97.6-50.4-130.4l-2.4-2.4c-31.2-32.8-74.4-52.8-120.8-52.8h-602.4c-47.2 0-90.4 20.8-122.4 55.2v0h-0.8c-31.2 33.6-50.4 80-50.4 130.4v488.8c0 51.2 19.2 97.6 50.4 131.2v0l0.8 0.8c32.8 32.8 76 53.6 123.2 53.6v0zM573.6 683.2v0l-161.6-449.6c-4.8-12 0.8-24.8 12.8-30.4 11.2-4.8 24 1.6 28 13.6l161.6 449.6c4.8 12-0.8 25.6-12.8 30.4-11.2 4.8-23.2-1.6-28-13.6v0zM392.8 580.8v0l-204.8-109.6c-10.4-5.6-15.2-20-9.6-32 2.4-4.8 4.8-8 9.6-10.4l204.8-109.6c11.2-6.4 24-1.6 29.6 10.4 4.8 11.2 0.8 25.6-10.4 31.2l-166.4 89.6 166.4 88.8c11.2 6.4 15.2 20 10.4 32-5.6 11.2-18.4 15.2-29.6 9.6v0zM614.4 539.2v0l166.4-88.8-166.4-89.6c-11.2-5.6-15.2-20-9.6-31.2 4.8-12 18.4-16.8 29.6-10.4l204.8 109.6c4 1.6 7.2 5.6 9.6 10.4 4.8 12 0.8 25.6-9.6 32l-204.8 109.6c-11.2 6.4-24 1.6-29.6-10.4-5.6-11.2-0.8-25.6 9.6-31.2v0zM814.4 802.4v0h-602.4c-27.2 0-52-12.8-70.4-32h-0.8c-18.4-19.2-28.8-46.4-28.8-76v-488.8c0-29.6 11.2-56 28.8-76h0.8c18.4-19.2 43.2-32 70.4-32h602.4c27.2 0 51.2 11.2 69.6 30.4l1.6 1.6c17.6 20 29.6 46.4 29.6 76v488.8c0 29.6-11.2 56.8-29.6 76s-44 32-71.2 32v0z" />
<glyph unicode="&#xe911;" glyph-name="22" d="M939.2 428h-407.2c11.2 0 20 8.8 20 20s-8.8 20-20 20h-20v123.2c0 22.4-18.4 40.8-40.8 40.8h-203.2c-22.4 0-40.8-18.4-40.8-40.8v-122.4h-20c-11.2 0-20-8.8-20-20s8.8-20 20-20c0 0 0 0 0 0h-122.4c-11.2 0-20-8.8-20-20s8.8-20 20-20h101.6v-304.8c0-11.2 8.8-20 20-20s20 8.8 20 20v304.8h569.6v-304.8c0-11.2 8.8-20 20-20s20 8.8 20 20v304.8h101.6c11.2 0 20 8.8 20 20 1.6 10.4-7.2 19.2-18.4 19.2zM471.2 468.8h-203.2v122.4h203.2v-122.4zM577.6 731.2c0-47.2 38.4-84.8 84.8-84.8 47.2 0 84.8 38.4 84.8 84.8 0 47.2-38.4 84.8-84.8 84.8s-84.8-37.6-84.8-84.8zM663.2 628c-56.8 0-103.2 46.4-103.2 103.2s46.4 103.2 103.2 103.2c56.8 0 103.2-46.4 103.2-103.2-0.8-56.8-46.4-103.2-103.2-103.2zM663.2 798.4c-36.8 0-67.2-30.4-67.2-67.2s30.4-67.2 67.2-67.2c36.8 0 67.2 30.4 67.2 67.2 0 0 0 0 0 0 0 36.8-30.4 67.2-67.2 67.2v0zM804.8 408.8h-283.2c0 0-16.8 210.4 141.6 210.4s141.6-210.4 141.6-210.4zM820.8 390.4h-316l-1.6 16.8c0 4.8-8.8 120 52 185.6 27.2 29.6 63.2 44 107.2 44s80-15.2 107.2-44c60.8-65.6 52.8-180.8 52-185.6l-0.8-16.8zM539.2 426.4h248c0 31.2-4.8 100.8-43.2 142.4-20 21.6-46.4 32.8-80.8 32.8s-60.8-10.4-80.8-32.8c-38.4-41.6-43.2-110.4-43.2-142.4z" />
<glyph unicode="&#xe912;" glyph-name="23" d="M512 884c-240.8 0-436-195.2-436-436s195.2-436 436-436 436 195.2 436 436-195.2 436-436 436zM776 184c-34.4-34.4-74.4-61.6-118.4-80-46.4-19.2-95.2-29.6-145.6-29.6s-99.2 9.6-145.6 29.6c-44.8 19.2-84.8 45.6-118.4 80-34.4 34.4-61.6 74.4-80 118.4-19.2 46.4-29.6 95.2-29.6 145.6s9.6 99.2 29.6 145.6c19.2 44.8 45.6 84.8 80 118.4 34.4 34.4 74.4 61.6 118.4 80 46.4 19.2 95.2 29.6 145.6 29.6s99.2-9.6 145.6-29.6c44.8-19.2 84.8-45.6 118.4-80 34.4-34.4 61.6-74.4 80-118.4 19.2-46.4 29.6-95.2 29.6-145.6s-9.6-99.2-29.6-145.6c-18.4-44-45.6-84-80-118.4zM490.4 456.8c26.4-12 55.2-15.2 84-9.6 53.6 11.2 96.8 56 105.6 110.4 0.8 7.2 1.6 14.4 1.6 21.6 0 28-8.8 55.2-24.8 77.6s-38.4 39.2-64.8 48.8c-52 19.2-113.6 2.4-148.8-40.8-17.6-21.6-28.8-48-31.2-76s4.8-56 19.2-80c13.6-21.6 34.4-40.8 59.2-52zM433.6 589.6c0 1.6 0 3.2 0.8 4.8 0 0 0 0.8 0 0.8 0 0.8 0 0.8 0 1.6 0.8 3.2 0.8 6.4 1.6 9.6 1.6 5.6 3.2 12 5.6 17.6v0 0c0 0.8 0.8 1.6 0.8 2.4 1.6 4 4 8 6.4 12 1.6 2.4 3.2 4.8 4.8 7.2 0.8 0.8 1.6 1.6 2.4 3.2 0 0 0.8 0.8 0.8 1.6 5.6 7.2 12 13.6 19.2 19.2 0 0 0.8 0.8 0.8 0.8 2.4 1.6 4.8 3.2 7.2 4.8 4.8 3.2 10.4 6.4 16 8.8 0.8 0 0.8 0.8 1.6 0.8 0 0 0 0 0 0 1.6 0.8 3.2 0.8 4.8 1.6 7.2 2.4 15.2 4.8 22.4 5.6 0.8 0 0.8 0 1.6 0v0c0 0 0.8 0 0.8 0 9.6 0.8 19.2 0.8 28 0 0 0 0 0 0.8 0s1.6 0 2.4 0c8-1.6 15.2-3.2 22.4-5.6 1.6-0.8 3.2-0.8 4.8-1.6v0c0.8 0 1.6-0.8 2.4-0.8 7.2-3.2 14.4-7.2 20.8-12.8 0 0 1.6-0.8 1.6-1.6 4.8-3.2 8.8-7.2 12.8-11.2 2.4-2.4 4.8-5.6 7.2-8 0 0 0.8-0.8 0.8-0.8v-0.8c4.8-7.2 9.6-14.4 12.8-22.4 0-0.8 0.8-0.8 0.8-1.6v0c0 0 0 0 0 0 0.8-3.2 2.4-5.6 3.2-8.8 1.6-5.6 3.2-12 4-18.4 0-0.8 0-1.6 0-2.4 0 0 0-0.8 0-0.8 0-1.6 0-2.4 0.8-4 0-3.2 0-6.4 0.8-10.4 0-3.2 0-6.4 0-9.6 0-1.6 0-3.2-0.8-4.8 0 0 0 0 0-0.8s0-1.6-0.8-3.2c-0.8-6.4-2.4-12-4.8-18.4-0.8-2.4-1.6-5.6-3.2-8 0 0 0 0 0 0v0c0-0.8-0.8-0.8-0.8-1.6-3.2-7.2-7.2-14.4-12-20.8-0.8-0.8-0.8-1.6-1.6-2.4 0 0-0.8-0.8-0.8-1.6-2.4-3.2-4.8-6.4-8-8.8-3.2-3.2-7.2-7.2-11.2-10.4 0 0-1.6-1.6-1.6-1.6-4.8-3.2-9.6-6.4-14.4-8.8-2.4-1.6-4.8-2.4-8-4-0.8 0-1.6-0.8-2.4-0.8v0 0c-1.6-0.8-3.2-0.8-4.8-1.6-7.2-2.4-15.2-4.8-22.4-5.6-0.8 0-1.6 0-2.4 0 0 0-0.8 0-0.8 0-3.2 0-6.4-0.8-9.6-0.8-6.4 0-12.8 0-19.2 0.8v0 0c-0.8 0-0.8 0-1.6 0-8 1.6-15.2 3.2-22.4 5.6-1.6 0.8-2.4 0.8-4 1.6 0 0 0 0-0.8 0s-1.6 0.8-2.4 0.8c-5.6 2.4-10.4 5.6-16 8.8-2.4 1.6-4 3.2-6.4 4 0 0-0.8 0.8-0.8 0.8-1.6 1.6-4 3.2-5.6 4.8-4.8 4.8-9.6 9.6-13.6 15.2 0 0-0.8 1.6-0.8 1.6-0.8 0.8-1.6 1.6-1.6 2.4-4 6.4-8 12.8-11.2 19.2 0 0.8-0.8 1.6-0.8 2.4 0 0 0 0 0 0.8v0.8c-3.2 8.8-5.6 17.6-7.2 26.4 0 0.8 0 0.8 0 1.6 0 0 0 0 0 0.8 0 1.6-0.8 4-0.8 5.6 0.8 6.4 0.8 12.8 1.6 19.2v0zM762.4 204.8c-1.6 34.4-10.4 68-25.6 98.4-14.4 28.8-34.4 54.4-58.4 74.4-24.8 20.8-53.6 36-84 43.2-34.4 8.8-71.2 8.8-104.8-0.8-36-9.6-68.8-29.6-96-57.6-4-4-3.2-11.2 0-15.2 4-4 10.4-4 14.4 0 3.2 3.2 6.4 6.4 9.6 9.6 1.6 1.6 3.2 3.2 4.8 4.8v0c0 0 0.8 0.8 0.8 0.8 4 3.2 8.8 6.4 13.6 9.6 7.2 4.8 14.4 9.6 22.4 13.6 2.4 0.8 4 2.4 6.4 3.2 0 0 0.8 0 0.8 0.8v0c0.8 0.8 1.6 0.8 3.2 1.6 4 1.6 8 3.2 12.8 4.8 10.4 4 21.6 6.4 32.8 8 0 0 1.6 0 2.4 0 5.6 0.8 10.4 1.6 16 1.6 12 0.8 24.8 0 36.8-1.6 0 0 0 0 0.8 0 0 0 0 0 0.8 0v0c0 0 0 0 0 0s0 0 0 0c0.8 0 1.6 0 2.4 0 9.6-1.6 18.4-4 27.2-6.4 7.2-2.4 13.6-4.8 20.8-8v0c0 0 0.8 0 0.8-0.8 2.4-0.8 4.8-2.4 7.2-4 3.2-1.6 6.4-3.2 9.6-5.6 6.4-4 12.8-8 18.4-12 2.4-1.6 4.8-3.2 6.4-5.6 0 0 0.8 0 0.8-0.8 2.4-2.4 5.6-4.8 8-7.2 5.6-4.8 10.4-10.4 16-16 4-4 7.2-8.8 10.4-13.6 0.8-0.8 0.8-1.6 1.6-2.4v0 0 0c0 0 0-0.8 0.8-0.8v0c8.8-12.8 16-25.6 22.4-40 0.8-1.6 1.6-4 2.4-5.6 0 0 0-0.8 0-0.8 0-0.8 0.8-1.6 0.8-2.4 1.6-4 2.4-7.2 4-11.2 2.4-7.2 4-15.2 5.6-23.2 0.8-4 1.6-8 2.4-12 0-1.6 0.8-4 0.8-5.6 0 0 0 0 0 0s0 0 0 0v0c0 0 0-0.8 0-0.8v0c0-0.8 0-1.6 0-3.2 0.8-8 1.6-16.8 1.6-24.8 0-6.4 4.8-10.4 10.4-10.4s10.4 4.8 10.4 10.4c0 5.6 0 9.6-0.8 13.6v0zM520.8 269.6c-0.8 4-4 6.4-7.2 8.8-1.6 1.6-4 3.2-5.6 4l-22.4 16.8-8.8 6.4c-2.4 1.6-4.8 3.2-8 4-8.8 1.6-15.2-3.2-20-9.6l-6.4-8.8-9.6-12.8c-16.8 6.4-33.6 14.4-48.8 25.6 0 0-2.4 1.6-2.4 1.6-0.8 0.8-2.4 1.6-3.2 2.4-2.4 1.6-4 4-6.4 5.6-4 3.2-7.2 7.2-10.4 11.2s-7.2 8-10.4 12c0 0-1.6 1.6-1.6 2.4-0.8 0.8-1.6 1.6-1.6 2.4v0c1.6 2.4 3.2 4.8 4.8 7.2l12 16c3.2 4 4.8 8.8 4 13.6-0.8 5.6-4 8.8-8 12.8-4.8 3.2-8.8 6.4-13.6 10.4l-18.4 13.6c-4.8 3.2-8.8 8-15.2 8-7.2 0-12-4-16-8.8-1.6-1.6-2.4-4-4-5.6l-13.6-18.4c-0.8-1.6-2.4-3.2-3.2-4 0 0-0.8-1.6-0.8-1.6-1.6-1.6-2.4-3.2-4-4.8s-2.4-4-4-5.6c-4.8-8.8-7.2-19.2-7.2-29.6 1.6-23.2 14.4-44 28.8-61.6 18.4-22.4 41.6-40.8 65.6-56.8 21.6-14.4 47.2-28 73.6-31.2 22.4-3.2 45.6 0.8 60.8 19.2 1.6 1.6 2.4 3.2 4 4.8 0.8 0.8 0.8 1.6 1.6 1.6 0 0 0 0 0 0 0.8 0.8 1.6 2.4 2.4 3.2 1.6 2.4 3.2 4 4.8 6.4l12.8 17.6 1.6 2.4c0 0 0.8 0.8 0.8 0.8s0.8 0.8 0.8 0.8c3.2 8 4 12.8 2.4 17.6zM468 290.4v0c0 0.8 1.6 2.4 0 0zM468 290.4c0 0.8 0 0 0 0zM287.2 329.6v0c0 0 0 0 0 0zM460.8 220.8v0c-1.6-0.8-0.8 0 0 0zM480 238.4v0c-0.8 0-0.8 0 0 0-2.4-2.4-3.2-4-4.8-5.6 0 0-0.8-0.8-0.8-1.6v-0.8c-0.8-0.8-1.6-1.6-2.4-2.4s-2.4-2.4-3.2-3.2v0c0 0 0 0 0 0s0 0 0 0c-1.6-0.8-0.8-0.8 0 0-1.6-0.8-4.8-3.2-4.8-3.2-0.8 0-1.6-0.8-2.4-0.8 0 0-1.6-0.8-1.6-0.8-2.4-0.8-4-1.6-6.4-1.6 0 0-1.6 0-2.4 0 0.8 0 0.8 0 0 0 0 0-0.8 0-0.8 0s0 0 0 0 0 0 0 0c-0.8 0-0.8 0-1.6 0-2.4 0-4.8 0-7.2 0-1.6 0-4 0-6.4 0 0 0-0.8 0-0.8 0-0.8 0-1.6 0-2.4 0-1.6 0-2.4 0.8-4 0.8-2.4 0.8-5.6 1.6-8 2.4-5.6 1.6-10.4 3.2-16 5.6 0 0-0.8 0.8-1.6 0.8s-1.6 0.8-2.4 0.8-2.4 1.6-4 1.6c-3.2 1.6-5.6 3.2-8.8 4.8-12.8 6.4-24 14.4-36 22.4-1.6 0.8-3.2 2.4-4.8 3.2-0.8 0-0.8 0.8-1.6 0.8 0 0-0.8 0.8-1.6 0.8-2.4 2.4-5.6 4-8 6.4-4.8 4-10.4 8.8-15.2 13.6-4.8 4-8.8 8.8-12.8 13.6-1.6 2.4-4 4.8-5.6 6.4-0.8 0.8-0.8 0.8-1.6 1.6 0 0 0 0 0 0v0c0 0 0 0 0 0s-0.8 0.8-0.8 0.8-1.6 1.6-2.4 3.2c-3.2 4-5.6 8.8-8.8 13.6-0.8 2.4-2.4 4.8-3.2 6.4 0 0 0 0.8 0 0.8s0 0 0 0.8c-0.8 0.8-0.8 2.4-1.6 3.2-0.8 2.4-1.6 4-1.6 6.4 0 1.6-0.8 3.2-0.8 4v0c0 0 0 0 0 0v0c0 1.6 0 0.8 0 0 0 1.6-0.8 4-0.8 5.6s0 2.4 0 4c0 0 0 0 0 0s0 0 0 0v0c0 1.6 0 0.8 0 0 0.8 1.6 0.8 4 1.6 5.6 0 0.8 0.8 1.6 0.8 2.4 0 0 0 0 0 0.8 0 0 0 0 0 0s0 0 0 0 0 0 0 0c0.8 1.6 1.6 4 3.2 5.6 0.8 0.8 0.8 1.6 1.6 2.4 0 0 0.8 0.8 0.8 0.8 0.8 0.8 2.4 2.4 3.2 4 5.6 9.6 12.8 17.6 20 26.4l12-8.8c7.2-4.8 13.6-10.4 20.8-15.2v0l-4.8-7.2c-4-5.6-8-11.2-12-16.8l-0.8-1.6c0 0 0 0-0.8-0.8-3.2-3.2-4.8-9.6-1.6-12.8 10.4-14.4 21.6-28 34.4-40 13.6-12.8 29.6-23.2 46.4-31.2 9.6-4 19.2-8 28.8-11.2 4-1.6 10.4 0.8 12 4.8 0.8 2.4 2.4 4 4 5.6l14.4 19.2 0.8 0.8 5.6-4 20.8-15.2 6.4-4.8-17.6-23.2zM449.6 217.6v0c0 0.8 0.8 0.8 0 0 0.8 0.8 0 0.8 0 0zM282.4 354.4v0 0 0zM468 224.8c0 0.8 0 0.8 0 0v0c0 0.8 0 0.8 0 0zM301.6 304.8v0c0 0 0 0.8 0 0 0 0.8 0 0 0 0zM285.6 364v0 0c0-0.8-0.8-0.8 0 0-0.8-1.6-0.8-2.4 0 0zM283.2 344v0c0 0 0 0 0 0s0 0 0 0z" />
<glyph unicode="&#xe913;" glyph-name="24" d="M737.6 253.6c0-20-16-36.8-36.8-36.8s-36.8 16-36.8 36.8c0 70.4-41.6 133.6-105.6 162.4-12 5.6-20 16.8-21.6 29.6s4.8 25.6 15.2 33.6c30.4 21.6 48.8 56.8 48.8 93.6 0 63.2-51.2 114.4-114.4 114.4s-114.4-51.2-114.4-114.4c0-36.8 18.4-72 48.8-93.6 10.4-7.2 16.8-20 15.2-33.6-1.6-12.8-9.6-24-21.6-29.6-64-28.8-105.6-92.8-105.6-162.4 0-20-16-36.8-36.8-36.8-20 0-36.8 16-36.8 36.8 0 81.6 39.2 156.8 104 203.2-25.6 32.8-40.8 73.6-40.8 116 0 103.2 84 188 188 188 103.2 0 188-84 188-188 0-42.4-14.4-83.2-40.8-116 64.8-46.4 104-121.6 104-203.2zM950.4 60.8l-119.2 116.8c67.2 79.2 104.8 179.2 104.8 283.2 0 240.8-196 436.8-436.8 436.8s-436.8-196-436.8-436.8 196-436.8 436.8-436.8c15.2 0 29.6 0.8 44 2.4 20 2.4 34.4 20 32.8 40-2.4 20-19.2 34.4-40 32.8-12-1.6-24-1.6-36.8-1.6-200.8 0-364 163.2-364 364s163.2 364 364 364 364-163.2 364-364c0-87.2-31.2-171.2-85.6-234.4l-24-22.4c-7.2-7.2-11.2-16-11.2-26.4 0-9.6 4-19.2 11.2-26.4l146.4-143.2c7.2-7.2 16-10.4 25.6-10.4s19.2 4 26.4 11.2c13.6 14.4 12.8 37.6-1.6 51.2z" />
<glyph unicode="&#xe914;" glyph-name="25" d="M861.6 448c0 76-23.2 148-68 210.4-10.4 14.4-30.4 17.6-44.8 7.2s-17.6-30.4-7.2-44.8c36.8-51.2 56-110.4 56-172.8s-19.2-121.6-56-172.8c-10.4-14.4-7.2-34.4 7.2-44.8 5.6-4 12-5.6 18.4-5.6 9.6 0 20 4.8 25.6 13.6 45.6 61.6 68.8 133.6 68.8 209.6v0zM272 665.6c-14.4 10.4-34.4 7.2-44.8-7.2-44-61.6-68-134.4-68-210.4s23.2-148 68-210.4c6.4-8.8 16-13.6 25.6-13.6 6.4 0 12.8 1.6 18.4 5.6 14.4 10.4 17.6 30.4 7.2 44.8-36.8 51.2-56 110.4-56 172.8s19.2 122.4 56 172.8c11.2 15.2 7.2 35.2-6.4 45.6v0zM849.6 820c-12 13.6-32 14.4-44.8 3.2-13.6-11.2-14.4-32-3.2-44.8 80.8-92 124.8-208.8 124.8-329.6s-44-238.4-124.8-329.6c-11.2-13.6-10.4-33.6 3.2-44.8 6.4-5.6 13.6-8 20.8-8 8.8 0 17.6 4 24 11.2 90.4 103.2 140.8 235.2 140.8 372 0 135.2-50.4 267.2-140.8 370.4v0zM97.6 448c0 120.8 44 238.4 124.8 329.6 11.2 13.6 10.4 33.6-3.2 44.8s-33.6 10.4-44.8-3.2c-90.4-103.2-140-235.2-140-372s49.6-268.8 140-372c6.4-7.2 15.2-11.2 24-11.2 7.2 0 15.2 2.4 20.8 8 13.6 11.2 14.4 32 3.2 44.8-80.8 92.8-124.8 210.4-124.8 331.2v0zM513.6 671.2c-123.2 0-223.2-100-223.2-223.2 0-63.2 27.2-124 74.4-166.4 12.8-12 33.6-10.4 44.8 2.4 12 12.8 10.4 33.6-2.4 44.8-33.6 30.4-53.6 73.6-53.6 118.4 0 88 71.2 159.2 159.2 159.2s159.2-71.2 159.2-159.2-71.2-159.2-159.2-159.2h-11.2c-13.6 0-25.6-8.8-30.4-21.6-8-21.6-20-40.8-36-57.6-12-12.8-12-32.8 0.8-44.8 6.4-5.6 14.4-8.8 22.4-8.8s16.8 3.2 23.2 9.6c17.6 17.6 31.2 38.4 41.6 60 118.4 5.6 212.8 103.2 212.8 223.2 0.8 123.2-99.2 223.2-222.4 223.2v0z" />
<glyph unicode="&#xe915;" glyph-name="26" d="M422.4 496h-329.6c-25.6 0-44.8 19.2-44.8 44.8v329.6c0 25.6 19.2 44.8 44.8 44.8h329.6c25.6 0 44.8-19.2 44.8-44.8v-329.6c0-25.6-19.2-44.8-44.8-44.8zM134.4 582.4h243.2v243.2h-243.2c0 0 0-243.2 0-243.2zM931.2 496h-329.6c-25.6 0-44.8 19.2-44.8 44.8v329.6c0 25.6 19.2 44.8 44.8 44.8h329.6c25.6 0 44.8-19.2 44.8-44.8v-329.6c0-25.6-19.2-44.8-44.8-44.8zM646.4 582.4h243.2v243.2h-243.2c0 0 0-243.2 0-243.2zM422.4-12.8h-329.6c-25.6 0-44.8 19.2-44.8 44.8v329.6c0 25.6 19.2 44.8 44.8 44.8h329.6c25.6 0 44.8-19.2 44.8-44.8v-329.6c0-25.6-19.2-44.8-44.8-44.8zM134.4 76.8h243.2v240h-243.2c0 0 0-240 0-240zM601.6-12.8c-25.6 0-44.8 19.2-44.8 44.8v329.6c0 25.6 19.2 44.8 44.8 44.8s44.8-19.2 44.8-44.8v-329.6c0-25.6-22.4-44.8-44.8-44.8zM931.2-12.8c-25.6 0-44.8 19.2-44.8 44.8v329.6c0 25.6 19.2 44.8 44.8 44.8s44.8-19.2 44.8-44.8v-329.6c0-25.6-19.2-44.8-44.8-44.8zM764.8-12.8c-25.6 0-44.8 19.2-44.8 44.8v329.6c0 25.6 19.2 44.8 44.8 44.8s44.8-19.2 44.8-44.8v-329.6c0-25.6-19.2-44.8-44.8-44.8z" />
<glyph unicode="&#xe916;" glyph-name="27" horiz-adv-x="1092" d="M1069.056 960h-284.672l-428.032-419.328v419.328h-356.352v-119.808h118.784v-898.56l950.272 1018.368z" />
<glyph unicode="&#xe917;" glyph-name="28" d="M361.6 288c-12.8-12.8-22.4-28.8-22.4-51.2 0-41.6 32-73.6 70.4-73.6h259.2c41.6 0 73.6 32 73.6 73.6 0 19.2-9.6 38.4-22.4 51.2 0 0 0 0 0 0v0 0c0 3.2 3.2 3.2 3.2 6.4v0 0c0 3.2 3.2 3.2 3.2 6.4v0l3.2 3.2c0 3.2 3.2 3.2 3.2 6.4 3.2 3.2 3.2 6.4 6.4 9.6v0l3.2 6.4c6.4 9.6 12.8 16 19.2 25.6v0 0c3.2 3.2 3.2 6.4 6.4 9.6v0c3.2 3.2 3.2 6.4 6.4 9.6v0c3.2 3.2 3.2 6.4 6.4 9.6v3.2c3.2 3.2 3.2 6.4 6.4 9.6l3.2 3.2v3.2c19.2 35.2 25.6 70.4 25.6 105.6 0 67.2-28.8 134.4-83.2 185.6-51.2 51.2-118.4 80-185.6 86.4-3.2 0-9.6 0-12.8 0s-9.6 0-12.8 0c-67.2-3.2-134.4-35.2-185.6-86.4s-83.2-118.4-83.2-185.6c0-76.8 41.6-134.4 73.6-182.4 19.2-12.8 28.8-25.6 35.2-35.2zM531.2 736c3.2 0 6.4 0 9.6 0s6.4 0 9.6 0c115.2-6.4 227.2-112 227.2-230.4 0-35.2-12.8-64-25.6-89.6 0 0 0 0 0 0-6.4-3.2-3.2-6.4-6.4-9.6 0 0 0 0 0-3.2-3.2-3.2-3.2-6.4-6.4-9.6 0 0 0 0 0 0-3.2-3.2-3.2-6.4-6.4-9.6 0 0 0 0 0 0-3.2-3.2-3.2-6.4-6.4-9.6 0 0 0 0 0 0-6.4-9.6-12.8-19.2-22.4-28.8 0 0 0 0 0 0-3.2-3.2-3.2-6.4-6.4-9.6 0-3.2-3.2-3.2-3.2-6.4 0 0 0-3.2-3.2-3.2 0-3.2-3.2-3.2-3.2-6.4 0 0 0-3.2-3.2-3.2-3.2-3.2-3.2-6.4-3.2-6.4s0 0 0-3.2-3.2-3.2-3.2-6.4c0 0 0-3.2 0-3.2 0-3.2-3.2-3.2-3.2-6.4 0 0 0 0 0 0 0-3.2-3.2-6.4-3.2-6.4s0 0 0-3.2 0-3.2-3.2-6.4c0 0 0 0 0-3.2s0-6.4-3.2-6.4c19.2 0 32-12.8 32-32s-12.8-32-32-32h-259.2c-19.2 0-32 16-32 32s12.8 32 32 32c-12.8 64-108.8 131.2-108.8 240 6.4 118.4 118.4 224 233.6 230.4zM444.8 105.6c-12.8 0-19.2-9.6-19.2-19.2 0-12.8 9.6-19.2 19.2-19.2h195.2c12.8 0 19.2 9.6 19.2 19.2 0 12.8-9.6 19.2-19.2 19.2h-195.2zM384 931.2h41.6v-102.4h-41.6c0 0 0 102.4 0 102.4zM172.8 841.6l76.8-76.8-28.8-28.8-76.8 76.8c0 0 28.8 28.8 28.8 28.8zM51.2 598.4h108.8v-41.6h-108.8c0 0 0 41.6 0 41.6zM524.8 924.8c-12.8 0-19.2-9.6-19.2-19.2 0-12.8 9.6-19.2 19.2-19.2 240 0 435.2-195.2 435.2-435.2s-195.2-435.2-435.2-435.2-435.2 195.2-435.2 435.2c0 12.8-9.6 19.2-19.2 19.2-12.8 0-19.2-9.6-19.2-19.2 0-262.4 214.4-476.8 476.8-476.8s476.8 214.4 476.8 476.8c-3.2 259.2-217.6 473.6-480 473.6z" />
<glyph unicode="&#xe918;" d="M0 316.8h1024v-52.8h-1024v52.8z" />
<glyph unicode="&#xe919;" d="M0 368.8h1024v-52.8h-1024v52.8z" />
<glyph unicode="&#xe91a;" d="M0 211.2h1024v-52.8h-1024v52.8z" />
<glyph unicode="&#xe91b;" d="M0 158.4h1024v-52.8h-1024v52.8zM0 264h1024v-52.8h-1024v52.8z" />
<glyph unicode="&#xe91c;" d="M0 421.6h1024v-52.8h-1024v52.8z" />
<glyph unicode="&#xe91d;" d="M0 580h1024v-52.8h-1024v52.8z" />
<glyph unicode="&#xe91e;" d="M0 737.6h1024v-52.8h-1024v52.8z" />
<glyph unicode="&#xe91f;" d="M0 684.8h1024v-52.8h-1024v52.8zM0 474.4h1024v-52.8h-1024v52.8zM0 790.4h1024v-52.8h-1024v52.8z" />
<glyph unicode="&#xe920;" d="M0 632.8h1024v-52.8h-1024v52.8zM0 527.2h1024v-52.8h-1024v52.8z" />
<glyph unicode="&#xe921;" d="M0 790.4h409.6v-368.8h-409.6v368.8z" />
<glyph unicode="&#xe922;" d="M308 770.4l2.4-8.8h9.6l-7.2-5.6 2.4-8.8-7.2 5.6-7.2-5.6 3.2 8.8-7.2 5.6h8.8l2.4 8.8zM308 694.4l2.4-8.8h9.6l-7.2-5.6 2.4-8.8-7.2 5.6-7.2-5.6 3.2 8.8-7.2 5.6h8.8l2.4 8.8zM308 617.6l2.4-8.8h9.6l-7.2-5.6 2.4-8.8-7.2 5.6-7.2-5.6 3.2 8.8-7.2 5.6h8.8l2.4 8.8zM308 539.2l2.4-8.8h9.6l-7.2-5.6 2.4-8.8-7.2 5.6-7.2-5.6 3.2 8.8-7.2 5.6h8.8l2.4 8.8zM308 464l2.4-8.8h9.6l-7.2-5.6 2.4-8.8-7.2 5.6-7.2-5.6 3.2 8.8-7.2 5.6h8.8l2.4 8.8zM239.2 770.4l3.2-8.8h8.8l-7.2-5.6 2.4-8.8-7.2 5.6-7.2-5.6 2.4 8.8-7.2 5.6h9.6l2.4 8.8zM239.2 694.4l3.2-8.8h8.8l-7.2-5.6 2.4-8.8-7.2 5.6-7.2-5.6 2.4 8.8-7.2 5.6h9.6l2.4 8.8zM239.2 617.6l3.2-8.8h8.8l-7.2-5.6 2.4-8.8-7.2 5.6-7.2-5.6 2.4 8.8-7.2 5.6h9.6l2.4 8.8zM239.2 539.2l3.2-8.8h8.8l-7.2-5.6 2.4-8.8-7.2 5.6-7.2-5.6 2.4 8.8-7.2 5.6h9.6l2.4 8.8zM239.2 464l3.2-8.8h8.8l-7.2-5.6 2.4-8.8-7.2 5.6-7.2-5.6 2.4 8.8-7.2 5.6h9.6l2.4 8.8zM170.4 770.4l2.4-8.8h8.8l-7.2-5.6 3.2-8.8-7.2 5.6-7.2-5.6 3.2 8.8-7.2 5.6h9.6l1.6 8.8zM170.4 694.4l2.4-8.8h8.8l-7.2-5.6 3.2-8.8-7.2 5.6-7.2-5.6 3.2 8.8-7.2 5.6h9.6l1.6 8.8zM170.4 617.6l2.4-8.8h8.8l-7.2-5.6 3.2-8.8-7.2 5.6-7.2-5.6 3.2 8.8-7.2 5.6h9.6l1.6 8.8zM170.4 539.2l2.4-8.8h8.8l-7.2-5.6 3.2-8.8-7.2 5.6-7.2-5.6 3.2 8.8-7.2 5.6h9.6l1.6 8.8zM170.4 464l2.4-8.8h8.8l-7.2-5.6 3.2-8.8-7.2 5.6-7.2-5.6 3.2 8.8-7.2 5.6h9.6l1.6 8.8zM101.6 770.4l3.2-8.8h9.6l-7.2-5.6 3.2-8.8-7.2 5.6-7.2-5.6 3.2 8.8-7.2 5.6h9.6v8.8zM101.6 694.4l3.2-8.8h9.6l-7.2-5.6 3.2-8.8-7.2 5.6-7.2-5.6 3.2 8.8-7.2 5.6h9.6v8.8zM101.6 617.6l3.2-8.8h9.6l-7.2-5.6 3.2-8.8-7.2 5.6-7.2-5.6 3.2 8.8-7.2 5.6h9.6v8.8zM101.6 539.2l3.2-8.8h9.6l-7.2-5.6 3.2-8.8-7.2 5.6-7.2-5.6 3.2 8.8-7.2 5.6h9.6v8.8zM101.6 464l3.2-8.8h9.6l-7.2-5.6 3.2-8.8-7.2 5.6-7.2-5.6 3.2 8.8-7.2 5.6h9.6v8.8zM33.6 770.4l2.4-8.8h9.6l-7.2-5.6 3.2-8.8-7.2 5.6-7.2-5.6 3.2 8.8-7.2 5.6h9.6l0.8 8.8zM33.6 694.4l2.4-8.8h9.6l-7.2-5.6 3.2-8.8-7.2 5.6-7.2-5.6 3.2 8.8-7.2 5.6h9.6l0.8 8.8zM33.6 617.6l2.4-8.8h9.6l-7.2-5.6 3.2-8.8-7.2 5.6-7.2-5.6 3.2 8.8-7.2 5.6h9.6l0.8 8.8zM33.6 539.2l2.4-8.8h9.6l-7.2-5.6 3.2-8.8-7.2 5.6-7.2-5.6 3.2 8.8-7.2 5.6h9.6l0.8 8.8zM33.6 464l2.4-8.8h9.6l-7.2-5.6 3.2-8.8-7.2 5.6-7.2-5.6 3.2 8.8-7.2 5.6h9.6l0.8 8.8zM342.4 732l2.4-8.8h9.6l-7.2-5.6 2.4-8.8-7.2 5.6-7.2-5.6 3.2 8.8-7.2 5.6h8.8l2.4 8.8zM342.4 653.6l2.4-8.8h9.6l-7.2-5.6 2.4-8.8-7.2 5.6-7.2-5.6 3.2 8.8-7.2 5.6h8.8l2.4 8.8zM341.6 576l2.4-8.8h9.6l-7.2-5.6 2.4-8.8-7.2 5.6-7.2-5.6 2.4 8.8-7.2 5.6h8.8l3.2 8.8zM341.6 499.2l3.2-8.8h8.8l-7.2-5.6 2.4-8.8-7.2 5.6-7.2-5.6 2.4 8.8-7.2 5.6h8.8l3.2 8.8zM274.4 732l2.4-8.8h9.6l-7.2-5.6 2.4-8.8-7.2 5.6-7.2-5.6 3.2 8.8-7.2 5.6h8.8l2.4 8.8zM274.4 653.6l2.4-8.8h9.6l-7.2-5.6 2.4-8.8-7.2 5.6-7.2-5.6 3.2 8.8-7.2 5.6h8.8l2.4 8.8zM273.6 576l3.2-8.8h8.8l-7.2-5.6 3.2-8.8-7.2 5.6-7.2-5.6 2.4 8.8-7.2 5.6h8.8l2.4 8.8zM272.8 499.2l3.2-8.8h8.8l-7.2-5.6 3.2-8.8-7.2 5.6-7.2-5.6 2.4 8.8-7.2 5.6h8.8l2.4 8.8zM205.6 735.2l3.2-8.8h8.8l-7.2-5.6 3.2-8.8-7.2 5.6-7.2-5.6 2.4 8.8-7.2 5.6h8.8l2.4 8.8zM205.6 656l3.2-8.8h8.8l-7.2-5.6 3.2-8.8-7.2 5.6-7.2-5.6 2.4 8.8-7.2 5.6h8.8l2.4 8.8zM204.8 578.4l3.2-8.8h8.8l-7.2-5.6 3.2-8.8-7.2 5.6-7.2-5.6 3.2 8.8-7.2 5.6h8.8l1.6 8.8zM204 501.6l3.2-8.8h8.8l-7.2-5.6 3.2-8.8-7.2 5.6-7.2-5.6 2.4 8.8-7.2 5.6h8.8l2.4 8.8zM136.8 736l3.2-8.8h9.6l-7.2-5.6 3.2-8.8-7.2 5.6-7.2-5.6 3.2 8.8-7.2 5.6h9.6v8.8zM136.8 656.8l3.2-8.8h9.6l-7.2-5.6 3.2-8.8-7.2 5.6-7.2-5.6 3.2 8.8-7.2 5.6h9.6v8.8zM136 579.2l3.2-8.8h9.6l-7.2-5.6 3.2-8.8-7.2 5.6-7.2-5.6 2.4 8.8-7.2 5.6h9.6l0.8 8.8zM135.2 502.4l3.2-8.8h9.6l-7.2-5.6 3.2-8.8-7.2 5.6-7.2-5.6 3.2 8.8-7.2 5.6h9.6v8.8zM68 737.6l3.2-8.8h9.6l-7.2-5.6 3.2-8.8-7.2 5.6-7.2-5.6 2.4 8.8-7.2 5.6h9.6l0.8 8.8zM68 658.4l3.2-8.8h9.6l-7.2-5.6 3.2-8.8-7.2 5.6-7.2-5.6 2.4 8.8-7.2 5.6h9.6l0.8 8.8zM68 580.8l3.2-8.8h9.6l-7.2-5.6 3.2-8.8-7.2 5.6-7.2-5.6 2.4 8.8-7.2 5.6h9.6l0.8 8.8zM67.2 504l2.4-8.8h9.6l-7.2-5.6 3.2-8.8-7.2 5.6-7.2-5.6 3.2 8.8-7.2 5.6h9.6l0.8 8.8zM376 770.4l2.4-8.8h9.6l-7.2-5.6 2.4-8.8-7.2 5.6-7.2-5.6 3.2 8.8-7.2 5.6h8.8l2.4 8.8zM376 694.4l2.4-8.8h9.6l-7.2-5.6 2.4-8.8-7.2 5.6-7.2-5.6 3.2 8.8-7.2 5.6h8.8l2.4 8.8zM376 617.6l2.4-8.8h9.6l-7.2-5.6 2.4-8.8-7.2 5.6-7.2-5.6 3.2 8.8-7.2 5.6h8.8l2.4 8.8zM376 539.2l2.4-8.8h9.6l-7.2-5.6 2.4-8.8-7.2 5.6-7.2-5.6 3.2 8.8-7.2 5.6h8.8l2.4 8.8zM376 464l2.4-8.8h9.6l-7.2-5.6 2.4-8.8-7.2 5.6-7.2-5.6 3.2 8.8-7.2 5.6h8.8l2.4 8.8z" />
<glyph unicode="&#xe923;" glyph-name="11" d="M719.2 216.8c22.4 0 40.8-18.4 40.8-40.8s-18.4-40.8-40.8-40.8v0c-11.2 0-20.8 4-28.8 12s-12 17.6-12 28.8c0 22.4 18.4 40.8 40.8 40.8zM719.2 256.8c-44.8 0-80.8-36-80.8-80.8 0-21.6 8.8-41.6 24-56.8s35.2-24 56.8-24v0 0c44.8 0 80.8 36 80.8 80.8s-36 80.8-80.8 80.8zM671.2 316.8c1.6 0 2.4-0.8 3.2-1.6 3.2-3.2 20-20 39.2-24l7.2-1.6 7.2 1.6c18.4 3.2 36 20 38.4 23.2 0.8 0.8 2.4 1.6 3.2 1.6s0.8 0 0.8 0l39.2-21.6c0.8-0.8 1.6-2.4 0.8-3.2v-1.6c-1.6-4.8-4.8-13.6-4.8-22.4v0c0-32.8 26.4-59.2 59.2-60 0-0.8 0-0.8 0.8-1.6v0c1.6-8.8 3.2-20.8 3.2-29.6 0-7.2-0.8-18.4-3.2-29.6v0 0c0-0.8 0-0.8 0-1.6-32-0.8-58.4-27.2-59.2-59.2v-3.2c0.8-7.2 2.4-13.6 4.8-20v-0.8c0-0.8 0-2.4-0.8-2.4l-40.8-22.4c0 0-0.8 0-0.8 0-1.6 0-2.4 0.8-3.2 0.8v0 0c-2.4 2.4-20 20.8-40 24.8l-8 1.6-8-1.6c-19.2-4-36-20.8-39.2-24.8-0.8-0.8-1.6-1.6-3.2-1.6 0 0-0.8 0-0.8 0l-39.2 21.6c-0.8 0.8-1.6 2.4-0.8 3.2v1.6c1.6 4 4.8 12.8 4.8 22.4 0 32.8-26.4 60-59.2 60.8 0 0.8 0 0.8 0 1.6v0 0c-2.4 11.2-3.2 21.6-3.2 29.6 0 11.2 2.4 25.6 3.2 29.6v0 0c0 0.8 0 0.8 0 1.6 32 0.8 58.4 27.2 59.2 59.2v3.2c-0.8 7.2-2.4 14.4-4.8 20.8v0 0c0 0.8 0 1.6 0.8 2.4l41.6 22.4c1.6 0.8 1.6 0.8 2.4 0.8zM868 144.8l20-2.4-21.6 1.6c0.8 0 0.8 0 1.6 0.8zM671.2 356.8c-5.6 0-11.2-0.8-16.8-3.2 0 0-0.8 0-0.8 0h-0.8c-0.8 0-0.8 0-1.6-0.8l-43.2-24c0 0 0 0 0 0l-0.8-0.8c-0.8 0-0.8-0.8-1.6-0.8-16-11.2-22.4-32.8-14.4-51.2 0.8-2.4 1.6-5.6 1.6-8 0-11.2-9.6-20-20.8-20h-1.6c-18.4 0-32.8-13.6-36.8-34.4v0c-0.8-6.4-4-23.2-4-36.8 0-12 2.4-26.4 4-36v0c0 0 0 0 0 0 4-20.8 18.4-34.4 36.8-34.4h1.6c11.2 0 20.8-8.8 20.8-20.8 0-1.6-0.8-5.6-1.6-7.2-8-18.4-1.6-40.8 16-52 0.8 0 0.8-0.8 1.6-0.8l42.4-23.2c0.8 0 0.8-0.8 1.6-0.8 5.6-2.4 11.2-3.2 16.8-3.2 12 0 23.2 4.8 32 13.6 0 0 0 0 0.8 0.8 4.8 5.6 14.4 12 18.4 12.8 3.2-0.8 12.8-6.4 18.4-12.8 8-8.8 20-14.4 32.8-14.4 6.4 0 12.8 1.6 18.4 4 0 0 0.8 0 0.8 0l42.4 23.2 0.8 0.8c0.8 0 0.8 0.8 0.8 0.8 16 11.2 22.4 32.8 14.4 51.2-0.8 2.4-1.6 5.6-1.6 8 0 11.2 9.6 20 20.8 20h1.6c18.4 0 32.8 13.6 36.8 34.4 0 0 0 0 0 0.8v0c1.6 8 4 23.2 4 36 0 14.4-3.2 32-4 36.8v0c-4 20.8-18.4 34.4-36.8 34.4h-1.6c-11.2 0-20.8 9.6-20.8 20.8 0 1.6 0.8 5.6 1.6 8 8 18.4 1.6 40-16 52-0.8 0-0.8 0.8-1.6 0.8l-42.4 24c-0.8 0-0.8 0.8-1.6 0.8-5.6 2.4-11.2 3.2-16.8 3.2-12 0-23.2-4.8-32-12.8 0 0 0 0 0 0-5.6-5.6-14.4-11.2-17.6-12-3.2 0.8-12 6.4-17.6 12v0c-9.6 6.4-20.8 11.2-32.8 11.2zM138.4-4.8c-9.6 0-18.4 7.2-20 16.8-3.2 21.6-4.8 39.2-4.8 56.8 0 53.6 10.4 105.6 31.2 155.2 20 47.2 48.8 89.6 85.6 126.4s79.2 65.6 126.4 85.6c48.8 20.8 101.6 31.2 155.2 31.2 11.2 0 20-8.8 20-20s-8.8-20-20-20c-197.6 0-358.4-160.8-358.4-358.4 0-15.2 1.6-31.2 4-51.2 1.6-11.2-6.4-20.8-16.8-22.4-0.8 0-1.6 0-2.4 0zM512 427.2c-63.2 0-122.4 24.8-167.2 68.8-44.8 44.8-68.8 104-68.8 167.2 0 130.4 105.6 236 236 236 63.2 0 122.4-24.8 167.2-68.8 44.8-44.8 68.8-104 68.8-167.2s-24.8-122.4-68.8-167.2c-44.8-44-104-68.8-167.2-68.8zM512 859.2c-108 0-196-88-196-196s88-196 196-196c108 0 196 88 196 196s-88 196-196 196z" />
<glyph unicode="&#xe924;" glyph-name="12" d="M892.8 802.4h-768.8c-48.8 0-88.8-40-88.8-88.8v-532c0-48.8 40-88.8 88.8-88.8h768.8c48.8 0 88.8 40 88.8 88.8v532c0 49.6-39.2 88.8-88.8 88.8zM116.8 152.8l-21.6 21.6 244 244 21.6-21.6c0 0-244-244-244-244zM900.8 152.8l-244 244 21.6 21.6 244-244c0 0-21.6-21.6-21.6-21.6zM538.4 349.6v-20h-59.2v20l-384 356 37.6 37.6 376-348.8 376 348.8 37.6-37.6-384-356z" />
<glyph unicode="&#xe925;" glyph-name="13" d="M515.2 956.8c-278.4 0-502.4-224-502.4-502.4s224-502.4 502.4-502.4c115.2 0 224 38.4 313.6 108.8 9.6 9.6 12.8 22.4 3.2 35.2s-22.4 12.8-35.2 3.2c-80-64-179.2-99.2-281.6-99.2-249.6 0-451.2 201.6-451.2 451.2s201.6 451.2 451.2 451.2c249.6 0 451.2-201.6 451.2-451.2 0-83.2-22.4-166.4-67.2-240-6.4-12.8-3.2-25.6 6.4-35.2 12.8-6.4 25.6-3.2 35.2 6.4 48 80 76.8 172.8 76.8 265.6 0 284.8-224 508.8-502.4 508.8v0zM793.6 601.6c0 0-70.4 0-105.6-70.4s-105.6 0-105.6 0 105.6-176 179.2-105.6c70.4 70.4 70.4 105.6 70.4 140.8-3.2 35.2-38.4 35.2-38.4 35.2zM454.4 774.4c0 0-22.4-6.4-35.2-3.2s-19.2 3.2-19.2 3.2l-16-25.6c0 0-6.4-16-9.6-25.6s3.2-22.4 3.2-22.4 28.8-3.2 28.8 6.4c0 9.6-3.2 12.8-3.2 12.8l-3.2 16c0 0 22.4 16 73.6 12.8s32-48 51.2-57.6c22.4-9.6-22.4-76.8-25.6-57.6 12.8-60.8-16 12.8-44.8-54.4-9.6-25.6-38.4-35.2-32-48s-3.2-44.8-3.2-54.4c0-9.6-38.4 16-41.6 38.4s-16 16-25.6 12.8c-9.6-3.2-35.2-9.6-41.6 3.2-3.2 9.6-73.6-25.6-6.4-64 3.2-9.6-6.4-35.2-3.2-51.2s44.8-3.2 57.6 3.2c12.8 6.4 48 12.8 54.4-3.2 3.2-19.2 83.2-16 96-19.2 16-3.2 51.2-19.2 67.2-35.2 16-19.2-57.6-48-57.6-60.8-3.2-9.6-16-38.4-22.4-54.4-9.6-19.2-12.8-25.6-22.4-32-9.6-9.6-16-25.6-16-25.6l-3.2-38.4c0 0 9.6-25.6 16-35.2s-12.8-67.2-12.8-67.2c-19.2 3.2-32 9.6-38.4 25.6-6.4 19.2-16 12.8-12.8 32s-28.8 44.8-35.2 54.4c-6.4 9.6-16 25.6-16 38.4s-22.4 25.6-22.4 25.6-41.6 19.2-48 28.8c-6.4 9.6-12.8 48-16 60.8-3.2 16 6.4 54.4 6.4 54.4s16 12.8 6.4 25.6c-9.6 9.6-12.8 38.4-12.8 38.4l-38.4-6.4c0 0-32 22.4-35.2 35.2-3.2 9.6-3.2 57.6 0 70.4 3.2 9.6 0 57.6 0 70.4 80 204.8 249.6 211.2 249.6 211.2s9.6-38.4 9.6-38.4z" />
<glyph unicode="&#xe926;" glyph-name="20" d="M512 3.2c-60.8 0-118.4 12.8-172.8 35.2s-102.4 54.4-140.8 96c-41.6 41.6-73.6 89.6-96 140.8-22.4 54.4-35.2 115.2-35.2 172.8 0 60.8 12.8 118.4 35.2 172.8s54.4 102.4 96 140.8c41.6 41.6 89.6 73.6 140.8 96 54.4 22.4 115.2 35.2 172.8 35.2 60.8 0 118.4-12.8 172.8-35.2s102.4-54.4 140.8-96c41.6-41.6 73.6-89.6 96-140.8 22.4-54.4 35.2-115.2 35.2-172.8 0-60.8-12.8-118.4-35.2-172.8s-54.4-102.4-96-140.8c-41.6-41.6-89.6-73.6-140.8-96-54.4-25.6-112-35.2-172.8-35.2zM512 854.4c-224 0-406.4-182.4-406.4-406.4s182.4-406.4 406.4-406.4c224 0 406.4 182.4 406.4 406.4s-182.4 406.4-406.4 406.4zM307.2 329.6v268.8h195.2v-32h-160v-83.2h150.4v-32h-150.4v-92.8h166.4v-32l-201.6 3.2zM556.8 329.6v195.2h28.8v-28.8c12.8 22.4 35.2 32 60.8 32 12.8 0 22.4-3.2 32-6.4s16-9.6 22.4-16c6.4-6.4 9.6-16 9.6-25.6 0-6.4 3.2-16 3.2-32v-121.6h-32v118.4c0 12.8 0 22.4-3.2 28.8s-6.4 12.8-12.8 16c-6.4 3.2-12.8 6.4-22.4 6.4-12.8 0-25.6-3.2-35.2-12.8s-16-25.6-16-51.2v-105.6h-35.2z" />
<glyph unicode="&#xe927;" glyph-name="19" d="M791.2 28.8h-558.4c-13.6 0-23.2-9.6-23.2-23.2s9.6-23.2 23.2-23.2h558.4c13.6 0 23.2 9.6 23.2 23.2 0 14.4-8.8 23.2-23.2 23.2zM824 904h-647.2c-74.4 0-130.4-60.8-130.4-130.4v-502.4c0-74.4 60.8-130.4 130.4-130.4h647.2c74.4 0 130.4 56 130.4 130.4v502.4c0 74.4-60.8 130.4-130.4 130.4zM912 271.2c0-51.2-41.6-88.8-88.8-88.8h-647.2c-51.2 0-88.8 41.6-88.8 88.8v502.4c0 46.4 41.6 88.8 88.8 88.8h647.2c51.2 0 88.8-41.6 88.8-88.8v-502.4zM647.2 415.2l-191.2 191.2h172c13.6 0 23.2 9.6 23.2 23.2s-9.6 23.2-23.2 23.2h-214.4c-23.2 0-41.6-18.4-41.6-41.6v-214.4c0-13.6 9.6-23.2 23.2-23.2s23.2 9.6 23.2 23.2c0 0 0 156.8 0 186.4l200-200c9.6-9.6 23.2-9.6 32.8 0s9.6 23.2-4 32z" />
<glyph unicode="&#xe928;" glyph-name="18" d="M780.8 710.4h-544c-44.8-25.6 0-51.2 0-51.2h550.4c32 32-6.4 51.2-6.4 51.2zM838.4 851.2h-659.2c-89.6-6.4-102.4-108.8-102.4-108.8v-390.4c6.4-89.6 96-102.4 96-102.4h288l268.8-198.4c32-19.2 44.8 12.8 44.8 12.8v185.6h70.4c83.2 19.2 89.6 96 89.6 96v403.2c0 83.2-96 102.4-96 102.4zM896 358.4c0 0-6.4-57.6-57.6-57.6h-83.2c0 0-19.2 6.4-19.2-32v-153.6l-256 185.6h-288c0 0-51.2 6.4-57.6 51.2v384c0 0 0 64 51.2 64h652.8c0 0 57.6-12.8 57.6-57.6v-384zM569.6 595.2h-339.2c-38.4-25.6 0-44.8 0-44.8h339.2c25.6 38.4 0 44.8 0 44.8z" />
<glyph unicode="&#xe929;" glyph-name="17" d="M563.2 414.4c2.4-4 6.4-7.2 11.2-8.8 1.6 0 3.2-0.8 4.8-0.8 3.2 0 6.4 0.8 9.6 2.4l106.4 61.6c4 2.4 7.2 6.4 8.8 11.2s0.8 10.4-1.6 14.4c-8 13.6-10.4 29.6-5.6 44.8 4 15.2 13.6 28 27.2 36 8.8 5.6 19.2 8 29.6 8 4.8 0 9.6 1.6 13.6 5.6 3.2 3.2 5.6 8 5.6 13.6v123.2c0 4.8-1.6 9.6-5.6 13.6-3.2 3.2-8 5.6-13.6 5.6-20.8 0-40.8 11.2-51.2 29.6s-10.4 40.8 0 59.2c2.4 4 3.2 9.6 1.6 14.4s-4.8 8.8-8.8 11.2l-106.4 61.6c-4 2.4-9.6 3.2-14.4 1.6s-8.8-4.8-11.2-8.8c-10.4-18.4-30.4-29.6-51.2-29.6-21.6 0-43.2 14.4-51.2 28.8-2.4 4.8-6.4 8-11.2 8.8-4.8 1.6-10.4 0.8-14.4-1.6l-106.4-61.6c-4-2.4-7.2-6.4-8.8-11.2s-0.8-10.4 1.6-14.4c8-13.6 10.4-29.6 5.6-44.8-4-15.2-13.6-28-27.2-36-8.8-5.6-19.2-8-29.6-8-4.8 0-9.6-1.6-13.6-5.6-3.2-3.2-5.6-8-5.6-13.6v-122.4c0-4.8 1.6-9.6 5.6-13.6 3.2-3.2 8-5.6 13.6-5.6 32.8 0 59.2-26.4 59.2-59.2 0-10.4-3.2-20.8-8-29.6-2.4-4-3.2-9.6-1.6-14.4s4.8-8.8 8.8-11.2l106.4-61.6c4-2.4 9.6-3.2 14.4-1.6s8.8 4.8 11.2 8.8c16 28 52 37.6 80.8 21.6 8.8-4.8 16-12 21.6-21.6zM512 481.6c-27.2 0-54.4-11.2-72.8-32.8l-76.8 44c3.2 10.4 4.8 20.8 4.8 31.2 0 25.6-10.4 50.4-28 68-13.6 13.6-30.4 23.2-49.6 26.4v88.8c10.4 2.4 20 5.6 29.6 11.2 22.4 12.8 38.4 33.6 44.8 58.4 4.8 18.4 4 38.4-1.6 56l76.8 44.8c16.8-18.4 43.2-32.8 72.8-32.8 28 0 54.4 12 72.8 32.8l76.8-44c-8.8-26.4-6.4-55.2 8-79.2 13.6-24 37.6-40.8 64.8-46.4v-88.8c-10.4-2.4-20-5.6-29.6-11.2-22.4-12.8-38.4-33.6-44.8-58.4-4.8-18.4-4-38.4 1.6-56l-76.8-44c-7.2 8-15.2 14.4-24 20-16 8-32 12-48.8 12zM480 278.4v0c-17.6 0-34.4 9.6-44 24.8-8.8 15.2-8.8 34.4 0 50.4 2.4 4 3.2 9.6 1.6 14.4s-4.8 8.8-8.8 11.2l-94.4 54.4c-4 2.4-9.6 3.2-14.4 1.6s-8.8-4.8-11.2-8.8c-8.8-15.2-25.6-24.8-43.2-24.8-18.4 0-36.8 12.8-43.2 24.8-2.4 4-6.4 8-11.2 8.8-4.8 1.6-10.4 0.8-14.4-1.6l-94.4-54.4c-8.8-4.8-12-16.8-7.2-25.6 6.4-12 8-24.8 4.8-38.4-3.2-12.8-12-24-23.2-30.4-7.2-4-16-6.4-24.8-6.4-10.4 0-19.2-8.8-19.2-19.2v-108c0-10.4 8.8-19.2 19.2-19.2 28 0 50.4-22.4 50.4-50.4 0-8.8-2.4-17.6-7.2-24.8-4.8-8.8-2.4-20.8 7.2-25.6l94.4-54.4c4-2.4 9.6-3.2 14.4-1.6s8.8 4.8 11.2 8.8c13.6 24 44.8 32 68.8 18.4 7.2-4 13.6-10.4 18.4-18.4 2.4-4 6.4-7.2 11.2-8.8 1.6 0 3.2-0.8 4.8-0.8 3.2 0 6.4 0.8 9.6 2.4l94.4 54.4c8.8 4.8 12 16.8 7.2 25.6-13.6 24-5.6 54.4 18.4 68.8 7.2 4.8 16 7.2 24.8 7.2 4.8 0 9.6 1.6 13.6 5.6 3.2 3.2 5.6 8 5.6 13.6v108.8c0 4.8-1.6 9.6-5.6 13.6-4 2.4-8.8 4-13.6 4zM460.8 168c-8.8-1.6-17.6-4.8-24.8-9.6-36.8-20.8-52-64.8-40-103.2l-65.6-37.6c-6.4 6.4-12.8 12-20.8 16.8-13.6 8-28.8 12-44 12-24 0-48-10.4-65.6-28.8l-65.6 37.6c3.2 8.8 4 17.6 4 26.4 0 42.4-29.6 77.6-68.8 86.4v75.2c8.8 1.6 16.8 4.8 24.8 9.6 20.8 12 35.2 30.4 40.8 53.6 4.8 16.8 4 33.6-0.8 49.6l65.6 37.6c15.2-16 39.2-28.8 64.8-28.8 24.8 0 48.8 10.4 64.8 28.8l65.6-37.6c-7.2-23.2-4.8-48.8 8-70.4s33.6-36.8 57.6-41.6v-76zM265.6 292c-48 0-86.4-39.2-86.4-86.4 0-48 39.2-86.4 86.4-86.4h1.6c47.2 0.8 84.8 39.2 84.8 86.4 0 48-39.2 86.4-86.4 86.4zM265.6 156.8h-1.6c-26.4 0.8-48 22.4-48 48.8 0 27.2 21.6 48.8 48.8 48.8s48.8-21.6 48.8-48.8c0.8-27.2-20.8-48.8-48-48.8zM607.2 664c0 52.8-42.4 95.2-95.2 95.2s-95.2-42.4-95.2-95.2 42.4-95.2 95.2-95.2c52.8 0 95.2 42.4 95.2 95.2zM512 606.4c-32 0-57.6 25.6-57.6 57.6s25.6 57.6 57.6 57.6c32 0 57.6-25.6 57.6-57.6s-25.6-57.6-57.6-57.6zM986.4 276c-3.2 3.2-8 5.6-13.6 5.6-17.6 0-34.4 9.6-43.2 24.8s-8.8 34.4 0 50.4c2.4 4 3.2 9.6 1.6 14.4s-4.8 8.8-8.8 11.2l-94.4 54.4c-4 2.4-9.6 3.2-14.4 1.6s-8.8-4.8-11.2-8.8c-8.8-15.2-25.6-24.8-43.2-24.8-18.4 0-36.8 12.8-43.2 24.8-2.4 4-6.4 8-11.2 8.8-4.8 1.6-10.4 0.8-14.4-1.6l-94.4-54.4c-4-2.4-7.2-6.4-8.8-11.2s-0.8-10.4 1.6-14.4c7.2-12 8.8-24.8 4.8-38.4-3.2-12.8-12-24-23.2-30.4-7.2-4.8-16-7.2-24.8-7.2-4.8 0-9.6-1.6-13.6-5.6-3.2-3.2-5.6-8-5.6-13.6v-108.8c0-4.8 1.6-9.6 5.6-13.6 3.2-3.2 8-5.6 13.6-5.6 28 0 50.4-22.4 50.4-50.4 0-8.8-2.4-17.6-7.2-24.8-2.4-4-3.2-9.6-1.6-14.4s4.8-8.8 8.8-11.2l94.4-54.4c4-2.4 9.6-3.2 14.4-1.6s8.8 4.8 11.2 8.8c7.2 12 17.6 20 30.4 23.2s26.4 1.6 38.4-4.8c7.2-4 13.6-10.4 18.4-18.4 3.2-6.4 9.6-9.6 16.8-9.6 3.2 0 6.4 0.8 9.6 2.4l94.4 54.4c4 2.4 7.2 6.4 8.8 11.2s0.8 10.4-1.6 14.4c-13.6 24-5.6 55.2 18.4 68.8 7.2 4.8 16 7.2 24.8 7.2 4.8 0 9.6 1.6 13.6 5.6 3.2 3.2 5.6 8 5.6 13.6v109.6c-1.6 4-3.2 8.8-7.2 12.8zM953.6 169.6c-8.8-2.4-16.8-5.6-24.8-9.6-36.8-20.8-52-64.8-40-103.2l-65.6-37.6c-6.4 6.4-12.8 12-20.8 16.8-13.6 8-28.8 12-44 12-7.2 0-15.2-0.8-23.2-3.2-16.8-4.8-31.2-13.6-42.4-25.6l-65.6 37.6c3.2 8.8 4 17.6 4 27.2 0 42.4-29.6 77.6-68.8 85.6v75.2c8.8 2.4 16.8 5.6 24.8 9.6 20.8 12 35.2 30.4 40.8 53.6 4 16.8 4 33.6-0.8 49.6l65.6 37.6c15.2-16 39.2-28.8 64.8-28.8 24.8 0 48.8 10.4 64.8 28.8l65.6-37.6c-7.2-23.2-4.8-48.8 8-70.4s33.6-36.8 57.6-41.6v-76zM758.4 294.4c-48 0-86.4-39.2-86.4-86.4 0-48 39.2-86.4 86.4-86.4s86.4 39.2 86.4 86.4c0.8 47.2-38.4 86.4-86.4 86.4zM758.4 158.4c-27.2 0-48.8 21.6-48.8 48.8s21.6 48.8 48.8 48.8 48.8-21.6 48.8-48.8-21.6-48.8-48.8-48.8z" />
<glyph unicode="&#xe92a;" glyph-name="3D2017" d="M342.4 686.4c1.6-1.6 3.2-3.2 4.8-3.2 0 0 1.6 0 1.6 0v0l156.8-49.6c0 0 1.6 0 1.6 0s1.6 0 1.6 0l150.4 48c0 0 0 0 0 0 1.6 0 3.2 0 3.2 1.6l329.6 105.6c3.2 1.6 4.8 3.2 4.8 6.4s-1.6 4.8-4.8 6.4l-483.2 155.2c-1.6 0-3.2 0-3.2 0l-483.2-155.2c-3.2-1.6-4.8-3.2-4.8-6.4s1.6-4.8 4.8-6.4l320-102.4zM350.4 696l-150.4 48 137.6 46.4 145.6-49.6-132.8-44.8zM358.4 796.8l148.8 49.6 147.2-49.6-150.4-49.6-145.6 49.6zM508.8 644.8l-137.6 44.8 132.8 44.8 137.6-46.4-132.8-43.2zM659.2 694.4l-137.6 46.4 150.4 51.2 142.4-48-155.2-49.6zM822.4 841.6l148.8-48-137.6-44.8c0 0-1.6 0-1.6 1.6l-140.8 46.4 131.2 44.8c0 0 0 0 0 0zM803.2 848l-131.2-43.2-147.2 49.6 128 43.2 150.4-49.6zM508.8 942.4l126.4-40-128-43.2-126.4 41.6 128 41.6zM360 896c0 0 1.6 0 0 0l126.4-41.6-148.8-49.6-128 43.2 150.4 48zM192 841.6c0 0 1.6-1.6 1.6-1.6l126.4-43.2-139.2-46.4-136 43.2 147.2 48zM1001.6 107.2l-483.2 158.4c-1.6 0-3.2 0-3.2 0l-483.2-158.4c-3.2-1.6-4.8-3.2-4.8-6.4s1.6-4.8 4.8-6.4l152-48c0 0 1.6 0 1.6 0l329.6-105.6c0 0 1.6 0 1.6 0s1.6 0 1.6 0l483.2 155.2c3.2 1.6 4.8 3.2 4.8 6.4-1.6 1.6-3.2 4.8-4.8 4.8zM660.8 206.4l148.8-48-132.8-44.8-147.2 49.6 131.2 43.2c-1.6 0 0 0 0 0zM657.6 105.6l-145.6-49.6-148.8 49.6 145.6 49.6 148.8-49.6zM515.2 252.8l124.8-41.6-131.2-44.8-124.8 41.6 131.2 44.8zM364.8 204.8c0 0 0 0 0 0l126.4-41.6-145.6-49.6-128 43.2 147.2 48zM52.8 102.4l144 48c0 0 0 0 0 0l128-43.2-140.8-46.4-131.2 41.6zM204.8 52.8l139.2 46.4 148.8-49.6-136-46.4-152 49.6zM515.2-46.4l-139.2 44.8 136 46.4 140.8-46.4-137.6-44.8zM672 3.2c0 0-1.6 1.6-1.6 1.6l-137.6 46.4 145.6 49.6 144-48-150.4-49.6zM840 57.6l-145.6 48 131.2 44.8c0 0 1.6 0 1.6 0l150.4-49.6-137.6-43.2zM25.6 745.6v-576c0-3.2 3.2-6.4 6.4-6.4s6.4 3.2 6.4 6.4v576c0 3.2-3.2 6.4-6.4 6.4s-6.4-3.2-6.4-6.4zM187.2 681.6v-448c0-3.2 1.6-4.8 4.8-4.8s4.8 1.6 4.8 4.8v448c0 3.2-1.6 4.8-4.8 4.8-1.6 0-4.8-1.6-4.8-4.8zM987.2 750.4c-3.2 0-6.4-3.2-6.4-6.4v-576c0-3.2 3.2-6.4 6.4-6.4s6.4 3.2 6.4 6.4v576c0 3.2-3.2 6.4-6.4 6.4zM822.4 680v-448c0-3.2 1.6-4.8 4.8-4.8s4.8 1.6 4.8 4.8v448c0 3.2-1.6 4.8-4.8 4.8s-4.8-1.6-4.8-4.8z" />
<glyph unicode="&#xe92b;" glyph-name="3D" d="M908 145.6h-372v-163.2h279.2v-46.4h-604.8v46.4h279.2v163.2h-372c-64 0-116 52-116 116v581.6c0 64 52 116 116 116h791.2c64 0 116-52 116-116v-581.6c-0.8-64-52.8-116-116.8-116v0zM977.6 820.8c0 64-28.8 92.8-92.8 92.8h-744.8c-64 0-92.8-28.8-92.8-92.8v-535.2c0-64 28.8-92.8 92.8-92.8h744.8c64 0 92.8 28.8 92.8 92.8v535.2zM768 564.8c-15.2 0-29.6 3.2-42.4 8l-76-108c15.2-16.8 24.8-38.4 24.8-63.2 0-51.2-41.6-92.8-92.8-92.8s-92.8 41.6-92.8 92.8c0 15.2 4 29.6 10.4 42.4l-108 124c-6.4-1.6-12.8-3.2-19.2-3.2-4.8 0-9.6 0.8-14.4 1.6l-90.4-126.4c7.2-11.2 11.2-24 11.2-37.6 0-38.4-31.2-69.6-69.6-69.6s-69.6 31.2-69.6 69.6c0 38.4 31.2 69.6 69.6 69.6 7.2 0 14.4-1.6 21.6-4l87.2 123.2c-9.6 12-16 27.2-16 44 0 38.4 31.2 69.6 69.6 69.6s69.6-31.2 69.6-69.6c0-15.2-4.8-28.8-12.8-40l100.8-115.2c14.4 9.6 32.8 16 52 16 10.4 0 19.2-1.6 28.8-4.8l76 108c-21.6 20.8-34.4 50.4-34.4 82.4 0 64 52 116 116 116s116-52 116-116c0.8-64.8-51.2-116.8-115.2-116.8v0zM209.6 424.8c-12.8 0-23.2-10.4-23.2-23.2s10.4-23.2 23.2-23.2 23.2 10.4 23.2 23.2c0 12.8-10.4 23.2-23.2 23.2v0zM372 657.6c-12.8 0-23.2-10.4-23.2-23.2s10.4-23.2 23.2-23.2 23.2 10.4 23.2 23.2c0.8 12.8-9.6 23.2-23.2 23.2v0zM581.6 448c-25.6 0-46.4-20.8-46.4-46.4s20.8-46.4 46.4-46.4c25.6 0 46.4 20.8 46.4 46.4s-20.8 46.4-46.4 46.4v0zM768 750.4c-38.4 0-69.6-31.2-69.6-69.6s31.2-69.6 69.6-69.6 69.6 31.2 69.6 69.6c0 38.4-31.2 69.6-69.6 69.6v0z" />
<glyph unicode="&#xe92c;" glyph-name="CAD2017" d="M430.4 6.4h-22.4l1.6 774.4-174.4 107.2v-881.6h-22.4v902.4c0 4.8 1.6 8 6.4 9.6 1.6 1.6 3.2 1.6 4.8 1.6s4.8 0 6.4-1.6l196.8-121.6c3.2-1.6 4.8-4.8 4.8-9.6l-1.6-780.8zM636.8 6.4h-22.4v499.2l-75.2 46.4v-545.6h-22.4v564.8c0 4.8 1.6 8 4.8 9.6 1.6 1.6 3.2 1.6 4.8 1.6s4.8 0 6.4-1.6l97.6-60.8c3.2-1.6 4.8-6.4 4.8-9.6l1.6-504zM827.2 6.4h-22.4v212.8l-49.6 30.4v-243.2h-22.4v262.4c0 0 0 0 0 0 0 4.8 1.6 8 6.4 9.6 1.6 1.6 3.2 1.6 4.8 1.6s4.8 0 6.4-1.6l72-44.8c3.2-1.6 4.8-4.8 4.8-9.6v-217.6zM542.4 552c-1.6 0-4.8 0-6.4 1.6l-123.2 80c-3.2 1.6-4.8 4.8-4.8 9.6 0 1.6 0 4.8 1.6 6.4 1.6 3.2 4.8 4.8 9.6 4.8 1.6 0 4.8 0 6.4-1.6l123.2-80c0 0 0 0 0 0 6.4 0 11.2-4.8 11.2-11.2s-4.8-11.2-11.2-11.2c-1.6-1.6-4.8 0-6.4 1.6v0zM756.8 251.2c-1.6 0-4.8 0-6.4 1.6l-123.2 80c-3.2 1.6-4.8 4.8-4.8 9.6 0 1.6 0 4.8 1.6 6.4 1.6 3.2 4.8 4.8 9.6 4.8 1.6 0 4.8 0 6.4-1.6l123.2-80c3.2-1.6 4.8-4.8 4.8-9.6 0-1.6 0-4.8-1.6-6.4-3.2-3.2-6.4-4.8-9.6-4.8 0 0 0 0 0 0v0zM140.8 883.2h20.8v-878.4h-20.8v878.4zM67.2 840h20.8v-835.2h-20.8v835.2z" />
<glyph unicode="&#xe92d;" glyph-name="CAD1" d="M972.8 892.8h-924.8c-22.4 0-38.4-16-38.4-38.4v-678.4c0-22.4 16-38.4 38.4-38.4h924.8c22.4 0 38.4 16 38.4 38.4v678.4c0 19.2-16 38.4-38.4 38.4zM995.2 854.4v-505.6h-156.8v83.2h-83.2v441.6h220.8c9.6 0 19.2-9.6 19.2-19.2zM752 332.8h70.4v-70.4h-70.4v70.4zM752 348.8v70.4h70.4v-70.4h-70.4zM51.2 873.6h688v-441.6h-83.2v-83.2h-624v505.6c-3.2 9.6 6.4 19.2 19.2 19.2zM736 332.8v-70.4h-70.4v70.4h70.4zM668.8 348.8v70.4h70.4v-70.4h-70.4zM28.8 176v160h624v-83.2h83.2v-96h-688c-9.6-3.2-19.2 6.4-19.2 19.2zM972.8 153.6h-220.8v96h83.2v83.2h156.8v-160c3.2-9.6-6.4-19.2-19.2-19.2zM272 22.4h480v-16h-480v16z" />
<glyph unicode="&#xe92e;" glyph-name="16" d="M960 550.4c-70.4-102.4-153.6-6.4-172.8 25.6s-134.4 147.2-275.2 147.2c-160 0-256-121.6-275.2-147.2-19.2-32-102.4-128-172.8-25.6-25.6 32-76.8 326.4 448 326.4 524.8-6.4 473.6-294.4 448-326.4v0zM512 819.2c-480 0-422.4-224-396.8-249.6 38.4-44.8 64 6.4 102.4 51.2 25.6 32 134.4 153.6 300.8 153.6v0c140.8 0 275.2-121.6 294.4-147.2 32-38.4 70.4-89.6 96-51.2 19.2 25.6 76.8 243.2-396.8 243.2v0zM512 672c217.6 0 371.2-332.8 371.2-499.2 0-147.2-51.2-147.2-371.2-147.2-326.4 0-371.2 0-371.2 147.2 0 160 153.6 499.2 371.2 499.2v0zM512 70.4c281.6 0 326.4 0 326.4 128 0 115.2-134.4 422.4-326.4 422.4-185.6 0-326.4-313.6-326.4-422.4 6.4-121.6 44.8-128 326.4-128v0zM512 524.8c70.4 0 121.6-57.6 121.6-121.6 0-70.4-57.6-121.6-121.6-121.6s-121.6 57.6-121.6 121.6c0 64 51.2 121.6 121.6 121.6v0zM512 320c38.4 0 76.8 32 76.8 76.8 0 38.4-32 76.8-76.8 76.8-38.4 0-76.8-32-76.8-76.8 6.4-38.4 38.4-76.8 76.8-76.8v0z" />
<glyph unicode="&#xe92f;" glyph-name="15" d="M932 868.8h-839.2c-38.4 0-68.8-31.2-68.8-68.8v-760.8h976.8v760.8c0 38.4-30.4 68.8-68.8 68.8zM310.4 93.6h-232v534.4h232v-534.4zM946.4 93.6h-581.6v534.4h581.6v-534.4zM946.4 682.4h-868v117.6c0 8.8 5.6 14.4 14.4 14.4h839.2c7.2 0 14.4-7.2 14.4-14.4v-117.6zM798.4 751.2c0-11.929-9.671-21.6-21.6-21.6s-21.6 9.671-21.6 21.6c0 11.929 9.671 21.6 21.6 21.6s21.6-9.671 21.6-21.6zM894.4 751.2c0-11.929-9.671-21.6-21.6-21.6s-21.6 9.671-21.6 21.6c0 11.929 9.671 21.6 21.6 21.6s21.6-9.671 21.6-21.6z" />
<glyph unicode="&#xe930;" glyph-name="CAD" d="M906.4 448c-4.8-40-20.8-76.8-44.8-107.2l34.4-34.4-32.8-32.8-34.4 34.4c-30.4-24-66.4-40.8-107.2-44.8v-48h-46.4v48c-40 4.8-76.8 20.8-107.2 44.8l-34.4-34.4-32.8 32.8 34.4 34.4c-24 30.4-40.8 66.4-44.8 107.2h-48v46.4h48c4.8 40 20.8 76.8 44.8 107.2l-34.4 34.4 32.8 32.8 34.4-34.4c30.4 24 66.4 40.8 107.2 44.8v48h46.4v-48c40-4.8 76.8-20.8 107.2-44.8l34.4 34.4 32.8-32.8-34.4-34.4c24-30.4 40.8-66.4 44.8-107.2h48v-46.4h-48zM698.4 634.4c-89.6 0-163.2-72.8-163.2-163.2s72.8-163.2 163.2-163.2c89.6 0 163.2 72.8 163.2 163.2-0.8 90.4-73.6 163.2-163.2 163.2v0zM442.4 122.4c0-25.6-20.8-46.4-46.4-46.4s-46.4 20.8-46.4 46.4c0 25.6 20.8 46.4 46.4 46.4s46.4-20.8 46.4-46.4v0zM163.2 727.2h256v-46.4h-256v46.4zM163.2 308.8v46.4h186.4v-46.4h-186.4zM163.2 540.8h209.6v-46.4h-209.6v46.4zM675.2 820.8c0 64-28.8 92.8-92.8 92.8h-372c-64 0-92.8-28.8-92.8-92.8v-744.8c0-64 28.8-92.8 92.8-92.8h372c64 0 92.8 28.8 92.8 92.8v69.6h46.4v-92.8c0-64-52-116-116-116h-419.2c-64 0-116 52-116 116v791.2c0 64 52 116 116 116h419.2c64 0 116-52 116-116v-46.4h-46.4v23.2z" />
<glyph unicode="&#xe931;" glyph-name="e" d="M1000.8 449.6l-0.8 147.2c0.8 8.8 3.2 49.6-12.8 88-17.6 44-77.6 79.2-84.8 83.2l-316.8 176-2.4 0.8c-3.2 1.6-29.6 12.8-72 12.8-40 0-66.4-12-69.6-12.8l-319.2-177.6c-6.4-4-66.4-39.2-84-83.2-16-38.4-13.6-79.2-12.8-88 0 0-0.8-114.4-0.8-134.4s5.6-30.4 17.6-40.8c13.6-11.2 48-12.8 52.8-12.8h131.2c20-136.8 140.8-241.6 286.4-241.6 109.6 0 204.8 60 253.6 147.2 0.8 1.6 10.4 24-10.4 34.4-24 12-42.4-16-42.4-16-40.8-66.4-115.2-112-200.8-112-114.4 0-210.4 80.8-229.6 187.2h473.6c0 0 22.4-2.4 35.2 10.4 10.4 10.4 10.4 16 10.4 29.6 0 155.2-129.6 281.6-289.6 281.6-154.4 0-280.8-118.4-288.8-267.2h-101.6c-12.8 0-22.4-1.6-32 6.4-8 6.4-8.8 12.8-8.8 28 0 14.4 0 102.4 0 102.4s-3.2 34.4 8.8 64c8 20 41.6 44.8 60.8 56l315.2 175.2c4 1.6 21.6 8 47.2 8 24 0 41.6-6.4 45.6-8l315.2-175.2c16-9.6 52-35.2 60.8-56 12-29.6 8.8-64 8.8-64v-1.6l0.8-149.6-0.8-148.8v-3.2c0 0 3.2-34.4-8.8-64-8-20-41.6-45.6-60.8-56l-315.2-175.2c-4-1.6-20.8-8-45.6-8h-2.4c-24 0-41.6 6.4-45.6 8l-315.2 175.2c-16 9.6-52 35.2-60.8 56-12 29.6-8.8 64-8.8 64v16c0 0-5.6 22.4-29.6 21.6s-26.4-21.6-26.4-21.6v-12c-0.8-8.8-3.2-49.6 12.8-88 18.4-44 77.6-79.2 84.8-83.2l316.8-176 2.4-0.8c3.2-1.6 29.6-12.8 70.4-12.8h1.6c40 0 66.4 12 69.6 12.8l319.2 177.6c6.4 4 66.4 39.2 84 83.2 16 38.4 13.6 79.2 12.8 88l1.6 149.6zM512.8 676.8c115.2 0 211.2-81.6 229.6-188.8 1.6-8 3.2-13.6-3.2-19.2-6.4-6.4-20-4-20-4h-439.2c8 118.4 109.6 212 232.8 212v0z" />
<glyph unicode="&#xe932;" glyph-name="IM" d="M12 120.8h690.4v-22.4h-690.4c0 0 0 22.4 0 22.4zM632.8 666.4h-550.4c-38.4 0-70.4-32-70.4-70.4v-342.4c0-38.4 32-69.6 70.4-69.6h550.4c38.4 0 69.6 31.2 69.6 69.6v342.4c0 38.4-30.4 70.4-69.6 70.4zM681.6 255.2c0-26.4-21.6-48.8-48.8-48.8h-551.2c-26.4 0-48.8 21.6-48.8 48.8v342.4c0 26.4 21.6 48.8 48.8 48.8h551.2c26.4 0 48.8-21.6 48.8-48.8v-342.4zM781.6 172c9.6 0 17.6 8 17.6 17.6s-8 17.6-17.6 17.6c-9.6 0-17.6-8-17.6-17.6s8-17.6 17.6-17.6zM944 856.8h-324c-28.8 0-52.8-24-52.8-53.6v-77.6h22.4v77.6c0 17.6 13.6 32 30.4 32h324c16.8 0 30.4-14.4 30.4-32v-522.4h-211.2v-22.4h211.2v-108c0-17.6-13.6-30.4-30.4-30.4h-179.2v-22.4h179.2c28.8 0 52 23.2 52 52.8v652.8c0 28.8-23.2 53.6-52 53.6z" />
<glyph unicode="&#xe933;" d="M886.784 478.208h52.224v-98.816h31.744v98.816h52.736v17.408h-136.704z" />
<glyph unicode="&#xe934;" d="M710.144 478.208v0c-5.12 5.632-12.8 10.24-22.016 12.8-9.728 3.072-20.992 4.608-34.816 4.608h-8.192c-13.824 0-25.088-1.536-34.816-4.608-9.216-3.072-16.384-7.168-22.016-12.8v0c-3.584-4.096-6.656-9.216-8.704-14.848-2.048-6.144-3.072-12.8-3.072-20.48 0-13.312 1.536-24.064 4.608-32.768s7.168-14.848 13.312-19.456c4.608-3.584 10.752-6.144 18.944-8.192s18.432-3.072 30.208-3.072h10.24c11.776 0 22.016 1.024 30.208 3.072s14.336 4.608 18.944 8.192v0c5.632 4.608 10.24 11.264 13.312 19.456 3.072 8.704 4.608 19.968 4.608 32.768 0 7.68-1.024 14.848-3.072 20.48-1.024 5.632-4.096 10.752-7.68 14.848zM688.128 417.792c-1.536-5.632-3.584-10.24-6.144-13.312v0c-2.56-3.072-6.656-5.12-11.776-6.656-4.608-1.536-10.752-2.048-17.408-2.048h-6.144c-6.656 0-12.8 0.512-17.408 2.048-5.12 1.536-9.216 3.584-11.776 6.656v0c-3.072 3.072-5.12 7.168-6.144 13.312-1.024 5.12-2.048 11.776-2.048 19.456 0 8.704 1.024 15.872 3.072 21.504 2.048 6.144 5.12 10.752 9.216 13.824v0c2.56 2.048 6.144 3.584 10.24 4.608s8.704 1.536 14.336 1.536h6.144c5.632 0 10.752-0.512 14.848-1.536s7.68-2.56 10.24-4.608v0c4.096-3.072 7.168-7.68 9.216-13.824 2.048-5.632 3.072-13.312 3.072-21.504 0-7.68-0.512-13.824-1.536-19.456z" />
<glyph unicode="&#xe935;" d="M168.96 494.592l-6.144 20.48h-162.304v-20.48h108.544l-108.544-94.72v-20.48h171.008v20.48h-111.104z" />
<glyph unicode="&#xe936;" d="M409.088 505.856v0c13.824 4.608 28.16 7.168 41.984 9.216v2.048l-76.8-1.536c-4.608 0-7.68-1.536-9.216-5.632l-13.824-43.52c14.848 17.92 34.816 32.256 57.856 39.424z" />
<glyph unicode="&#xe937;" d="M348.16 454.656l-9.216-29.184-23.552 75.776c-3.584 11.264-10.752 14.336-21.504 14.336h-25.6l-28.16-90.112-28.16 90.112h-31.232l42.496-136.192h26.624c13.312 0 16.384 3.072 19.456 12.8l24.576 78.848 28.672-91.648h27.648c12.8 0 16.384 3.072 19.456 12.8l22.528 72.192c5.632 15.36 12.8 24.576 22.016 30.72-27.136-5.632-50.176-19.968-66.048-40.448z" />
<glyph unicode="&#xe938;" d="M735.744 456.704v-77.824h31.744v50.176h105.472v17.408h-105.472v8.704c0 13.824 7.68 23.040 25.088 23.040h80.384v17.408h-89.6c-30.208 0-47.616-13.312-47.616-38.912z" />
<glyph unicode="&#xe939;" d="M517.12 445.952h-38.912c-12.8 0-19.456 7.168-19.456 15.872 0 8.192 6.656 16.384 19.968 16.384h80.896v17.408h-88.576c-35.328 0-46.080-17.408-46.080-33.792s10.752-33.28 46.080-33.28h38.912c12.8 0 19.456-7.168 19.456-15.872 0-8.192-6.656-16.384-19.456-16.384h-80.896v-17.408h88.064c35.328 0 46.080 17.408 46.080 33.792s-10.24 33.28-46.080 33.28z" />
<glyph unicode="&#xe93a;" glyph-name="top" d="M51.2 326.4h108.8v-288h51.2v288h108.8v44.8h-275.2v-44.8zM518.4 377.6c-51.2 0-96-19.2-121.6-51.2s-38.4-76.8-38.4-121.6c0-51.2 12.8-96 38.4-121.6 32-32 70.4-51.2 121.6-51.2s89.6 19.2 121.6 51.2c25.6 32 44.8 76.8 44.8 121.6 0 51.2-12.8 96-44.8 121.6-32 38.4-70.4 51.2-121.6 51.2v0zM595.2 108.8c-19.2-25.6-44.8-32-83.2-32-32 0-57.6 12.8-83.2 32-19.2 25.6-25.6 51.2-25.6 89.6s12.8 70.4 25.6 89.6c19.2 25.6 44.8 32 83.2 32 32 0 57.6-12.8 83.2-32 19.2-25.6 25.6-51.2 25.6-96 6.4-25.6-6.4-57.6-25.6-83.2v0zM870.4 371.2h-140.8v-339.2h51.2v128h83.2c83.2 0 121.6 32 121.6 102.4 6.4 76.8-32 108.8-115.2 108.8v0zM921.6 224c-12.8-12.8-32-12.8-51.2-12.8h-83.2v115.2h83.2c25.6 0 44.8-6.4 51.2-12.8 12.8-12.8 19.2-25.6 19.2-44.8-6.4-19.2-6.4-32-19.2-44.8v0zM537.6 819.2l-288-288h556.8l-268.8 288z" />
<glyph unicode="&#xe93b;" glyph-name="lx" d="M512 884c-240.8 0-436-195.2-436-436s195.2-436 436-436 436 195.2 436 436-195.2 436-436 436zM776 184c-34.4-34.4-74.4-61.6-118.4-80-46.4-19.2-95.2-29.6-145.6-29.6s-99.2 9.6-145.6 29.6c-44.8 19.2-84.8 45.6-118.4 80-34.4 34.4-61.6 74.4-80 118.4-19.2 46.4-29.6 95.2-29.6 145.6s9.6 99.2 29.6 145.6c19.2 44.8 45.6 84.8 80 118.4 34.4 34.4 74.4 61.6 118.4 80 46.4 19.2 95.2 29.6 145.6 29.6s99.2-9.6 145.6-29.6c44.8-19.2 84.8-45.6 118.4-80 34.4-34.4 61.6-74.4 80-118.4 19.2-46.4 29.6-95.2 29.6-145.6s-9.6-99.2-29.6-145.6c-18.4-44-45.6-84-80-118.4zM490.4 456.8c26.4-12 55.2-15.2 84-9.6 53.6 11.2 96.8 56 105.6 110.4 0.8 7.2 1.6 14.4 1.6 21.6 0 28-8.8 55.2-24.8 77.6s-38.4 39.2-64.8 48.8c-52 19.2-113.6 2.4-148.8-40.8-17.6-21.6-28.8-48-31.2-76s4.8-56 19.2-80c13.6-21.6 34.4-40.8 59.2-52zM433.6 589.6c0 1.6 0 3.2 0.8 4.8 0 0 0 0.8 0 0.8 0 0.8 0 0.8 0 1.6 0.8 3.2 0.8 6.4 1.6 9.6 1.6 5.6 3.2 12 5.6 17.6v0 0c0 0.8 0.8 1.6 0.8 2.4 1.6 4 4 8 6.4 12 1.6 2.4 3.2 4.8 4.8 7.2 0.8 0.8 1.6 1.6 2.4 3.2 0 0 0.8 0.8 0.8 1.6 5.6 7.2 12 13.6 19.2 19.2 0 0 0.8 0.8 0.8 0.8 2.4 1.6 4.8 3.2 7.2 4.8 4.8 3.2 10.4 6.4 16 8.8 0.8 0 0.8 0.8 1.6 0.8 0 0 0 0 0 0 1.6 0.8 3.2 0.8 4.8 1.6 7.2 2.4 15.2 4.8 22.4 5.6 0.8 0 0.8 0 1.6 0v0c0 0 0.8 0 0.8 0 9.6 0.8 19.2 0.8 28 0 0 0 0 0 0.8 0s1.6 0 2.4 0c8-1.6 15.2-3.2 22.4-5.6 1.6-0.8 3.2-0.8 4.8-1.6v0c0.8 0 1.6-0.8 2.4-0.8 7.2-3.2 14.4-7.2 20.8-12.8 0 0 1.6-0.8 1.6-1.6 4.8-3.2 8.8-7.2 12.8-11.2 2.4-2.4 4.8-5.6 7.2-8 0 0 0.8-0.8 0.8-0.8v-0.8c4.8-7.2 9.6-14.4 12.8-22.4 0-0.8 0.8-0.8 0.8-1.6v0c0 0 0 0 0 0 0.8-3.2 2.4-5.6 3.2-8.8 1.6-5.6 3.2-12 4-18.4 0-0.8 0-1.6 0-2.4 0 0 0-0.8 0-0.8 0-1.6 0-2.4 0.8-4 0-3.2 0-6.4 0.8-10.4 0-3.2 0-6.4 0-9.6 0-1.6 0-3.2-0.8-4.8 0 0 0 0 0-0.8s0-1.6-0.8-3.2c-0.8-6.4-2.4-12-4.8-18.4-0.8-2.4-1.6-5.6-3.2-8 0 0 0 0 0 0v0c0-0.8-0.8-0.8-0.8-1.6-3.2-7.2-7.2-14.4-12-20.8-0.8-0.8-0.8-1.6-1.6-2.4 0 0-0.8-0.8-0.8-1.6-2.4-3.2-4.8-6.4-8-8.8-3.2-3.2-7.2-7.2-11.2-10.4 0 0-1.6-1.6-1.6-1.6-4.8-3.2-9.6-6.4-14.4-8.8-2.4-1.6-4.8-2.4-8-4-0.8 0-1.6-0.8-2.4-0.8v0 0c-1.6-0.8-3.2-0.8-4.8-1.6-7.2-2.4-15.2-4.8-22.4-5.6-0.8 0-1.6 0-2.4 0 0 0-0.8 0-0.8 0-3.2 0-6.4-0.8-9.6-0.8-6.4 0-12.8 0-19.2 0.8v0 0c-0.8 0-0.8 0-1.6 0-8 1.6-15.2 3.2-22.4 5.6-1.6 0.8-2.4 0.8-4 1.6 0 0 0 0-0.8 0s-1.6 0.8-2.4 0.8c-5.6 2.4-10.4 5.6-16 8.8-2.4 1.6-4 3.2-6.4 4 0 0-0.8 0.8-0.8 0.8-1.6 1.6-4 3.2-5.6 4.8-4.8 4.8-9.6 9.6-13.6 15.2 0 0-0.8 1.6-0.8 1.6-0.8 0.8-1.6 1.6-1.6 2.4-4 6.4-8 12.8-11.2 19.2 0 0.8-0.8 1.6-0.8 2.4 0 0 0 0 0 0.8v0.8c-3.2 8.8-5.6 17.6-7.2 26.4 0 0.8 0 0.8 0 1.6 0 0 0 0 0 0.8 0 1.6-0.8 4-0.8 5.6 0.8 6.4 0.8 12.8 1.6 19.2v0zM762.4 204.8c-1.6 34.4-10.4 68-25.6 98.4-14.4 28.8-34.4 54.4-58.4 74.4-24.8 20.8-53.6 36-84 43.2-34.4 8.8-71.2 8.8-104.8-0.8-36-9.6-68.8-29.6-96-57.6-4-4-3.2-11.2 0-15.2 4-4 10.4-4 14.4 0 3.2 3.2 6.4 6.4 9.6 9.6 1.6 1.6 3.2 3.2 4.8 4.8v0c0 0 0.8 0.8 0.8 0.8 4 3.2 8.8 6.4 13.6 9.6 7.2 4.8 14.4 9.6 22.4 13.6 2.4 0.8 4 2.4 6.4 3.2 0 0 0.8 0 0.8 0.8v0c0.8 0.8 1.6 0.8 3.2 1.6 4 1.6 8 3.2 12.8 4.8 10.4 4 21.6 6.4 32.8 8 0 0 1.6 0 2.4 0 5.6 0.8 10.4 1.6 16 1.6 12 0.8 24.8 0 36.8-1.6 0 0 0 0 0.8 0 0 0 0 0 0.8 0v0c0 0 0 0 0 0s0 0 0 0c0.8 0 1.6 0 2.4 0 9.6-1.6 18.4-4 27.2-6.4 7.2-2.4 13.6-4.8 20.8-8v0c0 0 0.8 0 0.8-0.8 2.4-0.8 4.8-2.4 7.2-4 3.2-1.6 6.4-3.2 9.6-5.6 6.4-4 12.8-8 18.4-12 2.4-1.6 4.8-3.2 6.4-5.6 0 0 0.8 0 0.8-0.8 2.4-2.4 5.6-4.8 8-7.2 5.6-4.8 10.4-10.4 16-16 4-4 7.2-8.8 10.4-13.6 0.8-0.8 0.8-1.6 1.6-2.4v0 0 0c0 0 0-0.8 0.8-0.8v0c8.8-12.8 16-25.6 22.4-40 0.8-1.6 1.6-4 2.4-5.6 0 0 0-0.8 0-0.8 0-0.8 0.8-1.6 0.8-2.4 1.6-4 2.4-7.2 4-11.2 2.4-7.2 4-15.2 5.6-23.2 0.8-4 1.6-8 2.4-12 0-1.6 0.8-4 0.8-5.6 0 0 0 0 0 0s0 0 0 0v0c0 0 0-0.8 0-0.8v0c0-0.8 0-1.6 0-3.2 0.8-8 1.6-16.8 1.6-24.8 0-6.4 4.8-10.4 10.4-10.4s10.4 4.8 10.4 10.4c0 5.6 0 9.6-0.8 13.6v0zM520.8 269.6c-0.8 4-4 6.4-7.2 8.8-1.6 1.6-4 3.2-5.6 4l-22.4 16.8-8.8 6.4c-2.4 1.6-4.8 3.2-8 4-8.8 1.6-15.2-3.2-20-9.6l-6.4-8.8-9.6-12.8c-16.8 6.4-33.6 14.4-48.8 25.6 0 0-2.4 1.6-2.4 1.6-0.8 0.8-2.4 1.6-3.2 2.4-2.4 1.6-4 4-6.4 5.6-4 3.2-7.2 7.2-10.4 11.2s-7.2 8-10.4 12c0 0-1.6 1.6-1.6 2.4-0.8 0.8-1.6 1.6-1.6 2.4v0c1.6 2.4 3.2 4.8 4.8 7.2l12 16c3.2 4 4.8 8.8 4 13.6-0.8 5.6-4 8.8-8 12.8-4.8 3.2-8.8 6.4-13.6 10.4l-18.4 13.6c-4.8 3.2-8.8 8-15.2 8-7.2 0-12-4-16-8.8-1.6-1.6-2.4-4-4-5.6l-13.6-18.4c-0.8-1.6-2.4-3.2-3.2-4 0 0-0.8-1.6-0.8-1.6-1.6-1.6-2.4-3.2-4-4.8s-2.4-4-4-5.6c-4.8-8.8-7.2-19.2-7.2-29.6 1.6-23.2 14.4-44 28.8-61.6 18.4-22.4 41.6-40.8 65.6-56.8 21.6-14.4 47.2-28 73.6-31.2 22.4-3.2 45.6 0.8 60.8 19.2 1.6 1.6 2.4 3.2 4 4.8 0.8 0.8 0.8 1.6 1.6 1.6 0 0 0 0 0 0 0.8 0.8 1.6 2.4 2.4 3.2 1.6 2.4 3.2 4 4.8 6.4l12.8 17.6 1.6 2.4c0 0 0.8 0.8 0.8 0.8s0.8 0.8 0.8 0.8c3.2 8 4 12.8 2.4 17.6zM468 290.4v0c0 0.8 1.6 2.4 0 0zM468 290.4c0 0.8 0 0 0 0zM287.2 329.6v0c0 0 0 0 0 0zM460.8 220.8v0c-1.6-0.8-0.8 0 0 0zM480 238.4v0c-0.8 0-0.8 0 0 0-2.4-2.4-3.2-4-4.8-5.6 0 0-0.8-0.8-0.8-1.6v-0.8c-0.8-0.8-1.6-1.6-2.4-2.4s-2.4-2.4-3.2-3.2v0c0 0 0 0 0 0s0 0 0 0c-1.6-0.8-0.8-0.8 0 0-1.6-0.8-4.8-3.2-4.8-3.2-0.8 0-1.6-0.8-2.4-0.8 0 0-1.6-0.8-1.6-0.8-2.4-0.8-4-1.6-6.4-1.6 0 0-1.6 0-2.4 0 0.8 0 0.8 0 0 0 0 0-0.8 0-0.8 0s0 0 0 0 0 0 0 0c-0.8 0-0.8 0-1.6 0-2.4 0-4.8 0-7.2 0-1.6 0-4 0-6.4 0 0 0-0.8 0-0.8 0-0.8 0-1.6 0-2.4 0-1.6 0-2.4 0.8-4 0.8-2.4 0.8-5.6 1.6-8 2.4-5.6 1.6-10.4 3.2-16 5.6 0 0-0.8 0.8-1.6 0.8s-1.6 0.8-2.4 0.8-2.4 1.6-4 1.6c-3.2 1.6-5.6 3.2-8.8 4.8-12.8 6.4-24 14.4-36 22.4-1.6 0.8-3.2 2.4-4.8 3.2-0.8 0-0.8 0.8-1.6 0.8 0 0-0.8 0.8-1.6 0.8-2.4 2.4-5.6 4-8 6.4-4.8 4-10.4 8.8-15.2 13.6-4.8 4-8.8 8.8-12.8 13.6-1.6 2.4-4 4.8-5.6 6.4-0.8 0.8-0.8 0.8-1.6 1.6 0 0 0 0 0 0v0c0 0 0 0 0 0s-0.8 0.8-0.8 0.8-1.6 1.6-2.4 3.2c-3.2 4-5.6 8.8-8.8 13.6-0.8 2.4-2.4 4.8-3.2 6.4 0 0 0 0.8 0 0.8s0 0 0 0.8c-0.8 0.8-0.8 2.4-1.6 3.2-0.8 2.4-1.6 4-1.6 6.4 0 1.6-0.8 3.2-0.8 4v0c0 0 0 0 0 0v0c0 1.6 0 0.8 0 0 0 1.6-0.8 4-0.8 5.6s0 2.4 0 4c0 0 0 0 0 0s0 0 0 0v0c0 1.6 0 0.8 0 0 0.8 1.6 0.8 4 1.6 5.6 0 0.8 0.8 1.6 0.8 2.4 0 0 0 0 0 0.8 0 0 0 0 0 0s0 0 0 0 0 0 0 0c0.8 1.6 1.6 4 3.2 5.6 0.8 0.8 0.8 1.6 1.6 2.4 0 0 0.8 0.8 0.8 0.8 0.8 0.8 2.4 2.4 3.2 4 5.6 9.6 12.8 17.6 20 26.4l12-8.8c7.2-4.8 13.6-10.4 20.8-15.2v0l-4.8-7.2c-4-5.6-8-11.2-12-16.8l-0.8-1.6c0 0 0 0-0.8-0.8-3.2-3.2-4.8-9.6-1.6-12.8 10.4-14.4 21.6-28 34.4-40 13.6-12.8 29.6-23.2 46.4-31.2 9.6-4 19.2-8 28.8-11.2 4-1.6 10.4 0.8 12 4.8 0.8 2.4 2.4 4 4 5.6l14.4 19.2 0.8 0.8 5.6-4 20.8-15.2 6.4-4.8-17.6-23.2zM449.6 217.6v0c0 0.8 0.8 0.8 0 0 0.8 0.8 0 0.8 0 0zM282.4 354.4v0 0 0zM468 224.8c0 0.8 0 0.8 0 0v0c0 0.8 0 0.8 0 0zM301.6 304.8v0c0 0 0 0.8 0 0 0 0.8 0 0 0 0zM285.6 364v0 0c0-0.8-0.8-0.8 0 0-0.8-1.6-0.8-2.4 0 0zM283.2 344v0c0 0 0 0 0 0s0 0 0 0z" />
<glyph unicode="&#xe93c;" glyph-name="111" d="M513.6 499.2v-196.8c17.6-1.6 41.6-3.2 73.6-3.2 57.6 0 105.6 12.8 136 38.4 28.8 24 46.4 62.4 46.4 113.6 0 48-17.6 81.6-46.4 104-27.2 22.4-65.6 33.6-121.6 33.6h-86.4v-40h92.8c68.8 0 107.2-35.2 105.6-99.2 0-72-41.6-108.8-113.6-108.8-11.2 0-22.4 0-30.4 1.6v158.4h-56zM380.8 339.2c-28.8 0-56 11.2-68.8 17.6l-12.8-40c16-9.6 48-19.2 83.2-19.2 73.6 0 116.8 38.4 116.8 86.4 0 38.4-28.8 64-65.6 70.4v1.6c36.8 12.8 54.4 36.8 54.4 67.2 0 36.8-32 68.8-92.8 68.8-35.2 0-68.8-11.2-86.4-22.4l12.8-38.4c12.8 8 36.8 17.6 60.8 17.6 32 0 48-16 48-35.2 0-28.8-33.6-40-59.2-40h-25.6v-40h25.6c35.2 0 67.2-14.4 67.2-48 3.2-24-14.4-46.4-57.6-46.4zM198.4 715.2l164.8-49.6c1.6-1.6 3.2-3.2 4.8-3.2 0 0 1.6 0 1.6 0v0l155.2-48c0 0 1.6 0 1.6 0s1.6 0 1.6 0l150.4 44.8c0 0 0 0 0 0 1.6 0 3.2 0 3.2 1.6l329.6 100.8c3.2 0 4.8 3.2 4.8 4.8 0 3.2-1.6 4.8-4.8 4.8l-483.2 147.2c-1.6 0-3.2 0-3.2 0l-483.2-147.2c-3.2 0-4.8-3.2-4.8-4.8s1.6-4.8 4.8-4.8l156.8-46.4c0 0 0 0 0 0zM369.6 675.2l-150.4 46.4 137.6 43.2 145.6-46.4-132.8-43.2zM377.6 771.2l148.8 48 147.2-46.4-150.4-48-145.6 46.4zM528 627.2l-137.6 41.6 132.8 41.6 137.6-44.8-132.8-38.4zM678.4 673.6l-137.6 44.8 150.4 48 142.4-44.8-155.2-48zM841.6 814.4l148.8-44.8-137.6-41.6c0 0-1.6 0-1.6 1.6l-140.8 44.8 131.2 40c0 0 0 0 0 0zM822.4 819.2l-131.2-41.6-147.2 46.4 128 40 150.4-44.8zM528 910.4l124.8-38.4-128-40-126.4 40 129.6 38.4zM379.2 864c1.6 0 1.6 0 0 0l126.4-40-148.8-46.4-128 41.6 150.4 44.8zM211.2 812.8c0 0 1.6-1.6 1.6-1.6l126.4-40-139.2-44.8-136 41.6 147.2 44.8zM1019.2 118.4l-483.2 150.4c-1.6 0-3.2 0-3.2 0l-483.2-150.4c-3.2 0-4.8-3.2-4.8-4.8 0-3.2 1.6-4.8 4.8-4.8l152-46.4c0 0 1.6 0 1.6 0l329.6-100.8c0 0 1.6 0 1.6 0s1.6 0 1.6 0l483.2 147.2c3.2 0 4.8 3.2 4.8 4.8s-1.6 3.2-4.8 4.8zM680 211.2l148.8-46.4-132.8-43.2-147.2 46.4 131.2 43.2c-1.6 0-1.6 0 0 0zM676.8 116.8l-145.6-46.4-148.8 46.4 145.6 46.4 148.8-46.4zM534.4 256l124.8-38.4-131.2-41.6-124.8 40 131.2 40zM384 209.6c0 0 0 0 0 0l124.8-40-145.6-46.4-128 40 148.8 46.4zM72 112l144 44.8c0 0 0 0 0 0l126.4-40-139.2-44.8-131.2 40zM224 65.6l139.2 44.8 148.8-46.4-136-43.2-152 44.8zM534.4-28.8l-139.2 41.6 136 43.2 139.2-44.8-136-40zM689.6 19.2c0 0-1.6 1.6-1.6 1.6l-137.6 43.2 144 46.4 144-46.4-148.8-44.8zM859.2 70.4l-144 46.4 131.2 41.6c0 0 1.6 0 1.6 0l150.4-46.4-139.2-41.6zM46.4 721.6v-545.6c0-3.2 3.2-6.4 6.4-6.4s6.4 3.2 6.4 6.4v545.6c0 3.2-3.2 6.4-6.4 6.4-4.8 0-6.4-3.2-6.4-6.4zM206.4 662.4v-424c0-3.2 1.6-4.8 4.8-4.8s4.8 1.6 4.8 4.8v424c0 3.2-1.6 4.8-4.8 4.8-1.6 0-4.8-3.2-4.8-4.8zM1006.4 726.4c-3.2 0-6.4-3.2-6.4-6.4v-545.6c0-3.2 3.2-6.4 6.4-6.4s6.4 3.2 6.4 6.4v545.6c0 4.8-3.2 6.4-6.4 6.4zM841.6 660.8v-424c0-3.2 1.6-4.8 4.8-4.8s4.8 1.6 4.8 4.8v424c0 3.2-1.6 4.8-4.8 4.8s-4.8-1.6-4.8-4.8z" />
<glyph unicode="&#xe93d;" glyph-name="112" d="M177.6 740.8l164.8-52.8c1.6-1.6 3.2-3.2 4.8-3.2 0 0 1.6 0 1.6 0v0l156.8-49.6c0 0 1.6 0 1.6 0s1.6 0 1.6 0l150.4 48c0 0 0 0 0 0 1.6 0 3.2 0 3.2 1.6l331.2 105.6c3.2 1.6 4.8 3.2 4.8 6.4s-1.6 4.8-4.8 6.4l-486.4 155.2c-1.6 0-3.2 0-3.2 0l-486.4-155.2c-3.2-1.6-4.8-3.2-4.8-6.4s1.6-4.8 4.8-6.4l160-49.6c0 0 0 0 0 0zM348.8 699.2l-150.4 48 139.2 46.4 145.6-49.6-134.4-44.8zM356.8 800l148.8 49.6 147.2-49.6-150.4-51.2-145.6 51.2zM507.2 648l-139.2 44.8 134.4 44.8 137.6-46.4-132.8-43.2zM659.2 697.6l-137.6 46.4 150.4 51.2 142.4-48-155.2-49.6zM824 844.8l148.8-48-137.6-44.8c0 0-1.6 0-1.6 1.6l-140.8 46.4 131.2 44.8c0 0 0 0 0 0zM804.8 851.2l-131.2-44.8-147.2 49.6 128 43.2 150.4-48zM507.2 947.2l126.4-40-128-43.2-126.4 41.6 128 41.6zM360 899.2c0 0 0 0 0 0l126.4-43.2-148.8-49.6-128 43.2 150.4 49.6zM190.4 844.8c0 0 1.6-1.6 1.6-1.6l126.4-43.2-139.2-46.4-136 43.2 147.2 48zM1003.2 108.8l-486.4 158.4c-1.6 0-3.2 0-3.2 0l-486.4-158.4c-3.2-1.6-4.8-3.2-4.8-6.4s1.6-4.8 4.8-6.4l152-49.6c0 0 1.6 0 1.6 0l331.2-107.2c0 0 1.6 0 1.6 0s1.6 0 1.6 0l486.4 155.2c3.2 1.6 4.8 3.2 4.8 6.4 0 4.8-1.6 6.4-3.2 8zM660.8 206.4l150.4-49.6-132.8-44.8-148.8 49.6 131.2 44.8c-1.6 0 0 0 0 0zM657.6 105.6l-145.6-49.6-150.4 49.6 147.2 49.6 148.8-49.6zM515.2 254.4l126.4-41.6-131.2-44.8-126.4 41.6 131.2 44.8zM363.2 204.8c0 0 0 0 0 0l126.4-41.6-147.2-49.6-128 43.2 148.8 48zM49.6 102.4l145.6 48c0 0 0 0 0 0l128-43.2-140.8-46.4-132.8 41.6zM203.2 52.8l140.8 46.4 150.4-49.6-136-46.4-155.2 49.6zM515.2-46.4l-139.2 44.8 136 46.4 140.8-46.4-137.6-44.8zM672 3.2c0 0-1.6 1.6-1.6 1.6l-137.6 46.4 145.6 49.6 145.6-48-152-49.6zM841.6 57.6l-145.6 48 131.2 44.8c0 0 1.6 0 1.6 0l152-49.6-139.2-43.2zM24 748.8v-577.6c0-3.2 3.2-6.4 6.4-6.4s6.4 3.2 6.4 6.4v577.6c0 3.2-3.2 6.4-6.4 6.4-4.8-1.6-6.4-3.2-6.4-6.4zM185.6 684.8v-449.6c0-3.2 1.6-4.8 4.8-4.8s4.8 1.6 4.8 4.8v449.6c0 3.2-1.6 4.8-4.8 4.8s-4.8-1.6-4.8-4.8zM988.8 753.6c-3.2 0-6.4-3.2-6.4-6.4v-577.6c0-3.2 3.2-6.4 6.4-6.4s6.4 3.2 6.4 6.4v577.6c0 3.2-1.6 6.4-6.4 6.4zM822.4 683.2v-449.6c0-3.2 1.6-4.8 4.8-4.8s4.8 1.6 4.8 4.8v449.6c0 3.2-1.6 4.8-4.8 4.8-1.6 0-4.8-1.6-4.8-4.8z" />
<glyph unicode="&#xe93e;" d="M445.6 417.6c0 16.8-13.6 30.4-30.4 30.4 0 0 0 0 0 0h-197.6c-16.8 0-30.4-13.6-30.4-30.4s13.6-30.4 30.4-30.4h197.6c16.8 0 30.4 13.6 30.4 30.4zM238.4 644c-28.8 0-51.2-13.6-51.2-30.4s23.2-30.4 51.2-30.4h444c28.8 0 51.2 13.6 51.2 30.4s-23.2 30.4-51.2 30.4h-444z" />
<glyph unicode="&#xe93f;" d="M357.6 48.8l-164-0.8c-42.4 0-76.8 35.2-76.8 79.2v638.4c0 43.2 34.4 79.2 76.8 79.2h625.6c42.4 0 76.8-35.2 76.8-79.2v-269.6c0-16.8 13.6-30.4 30.4-30.4s30.4 13.6 30.4 30.4c0 0 0 0 0 0v0 269.6c0 77.6-61.6 140-137.6 140h-625.6c-76 0-137.6-63.2-137.6-140v-638.4c0-77.6 61.6-140 137.6-140l164 0.8c16.8 0 30.4 14.4 29.6 31.2 0 16-13.6 29.6-29.6 29.6z" />
<glyph unicode="&#xe940;" d="M958.4 18.4h-16.8v232.8c0 36.8-29.6 66.4-66.4 66.4h-100v33.6c0 36.8-29.6 66.4-66.4 66.4h-132.8c-36.8 0-66.4-29.6-66.4-66.4v-332.8h-16.8c-8.8 0-16.8-7.2-16.8-16 0 0 0 0 0 0 0-8.8 7.2-16.8 16-16.8 0 0 0 0 0 0h465.6c8.8 0 16.8 7.2 16.8 16 0 0 0 0 0 0 0.8 9.6-6.4 16.8-16 16.8 0 0 0 0 0 0v0zM742.4 317.6v-299.2h-200v332.8c0 18.4 15.2 33.6 33.6 33.6h132.8c18.4 0 33.6-15.2 33.6-33.6 0 0 0-33.6 0-33.6zM908.8 18.4h-132.8v266.4h100c18.4 0 33.6-15.2 33.6-33.6-0.8 0-0.8-232.8-0.8-232.8zM692.8 317.6h-100c-8.8 0-16.8-7.2-16.8-16 0 0 0 0 0 0 0-9.6 7.2-16.8 16.8-16.8h100c9.6 0 16.8 7.2 16.8 16.8-0.8 8.8-8 16-16.8 16zM692.8 218.4h-100c-8.8 0-16.8-7.2-16.8-16 0 0 0 0 0 0 0-8.8 7.2-16.8 16-16.8 0 0 0 0 0 0h100c9.6 0 16.8 7.2 16.8 16.8 0 8-7.2 15.2-16 16 0 0 0 0 0 0v0zM692.8 118.4h-100c-8.8 0-16.8-7.2-16.8-16 0 0 0 0 0 0 0-8.8 7.2-16.8 16-16.8 0 0 0 0 0 0h100c8.8 0 16.8 7.2 16.8 16 0 0 0 0 0 0 0 8.8-7.2 16.8-16 16.8 0 0 0 0 0 0zM858.4 218.4h-33.6c-8.8 0-16.8-7.2-16.8-16 0 0 0 0 0 0 0-9.6 7.2-16.8 16.8-16.8h33.6c8.8 0 16.8 7.2 16.8 16 0 0 0 0 0 0 0 8.8-7.2 16-16.8 16.8 0.8 0 0.8 0 0 0v0zM858.4 118.4h-33.6c-8.8 0-16.8-7.2-16.8-16 0 0 0 0 0 0 0-8.8 7.2-16.8 16-16.8 0 0 0 0 0 0h33.6c8.8 0 16.8 7.2 16.8 16 0 0 0 0 0 0 0.8 8.8-6.4 16.8-16 16.8 0.8 0 0.8 0 0 0z" />
<glyph unicode="&#xe941;" glyph-name="more" d="M121.6 568c-65.6 0-118.4-52.8-118.4-118.4s52.8-118.4 118.4-118.4 118.4 52.8 118.4 118.4c0 65.6-52.8 118.4-118.4 118.4zM500 568c-65.6 0-118.4-52.8-118.4-118.4s52.8-118.4 118.4-118.4 118.4 52.8 118.4 118.4c0 65.6-52.8 118.4-118.4 118.4zM901.6 568c-65.6 0-118.4-52.8-118.4-118.4s52.8-118.4 118.4-118.4 118.4 52.8 118.4 118.4c0.8 65.6-52.8 118.4-118.4 118.4z" />
<glyph unicode="&#xe942;" glyph-name="new2" d="M511.701 832.281c-211.958 0-383.778-171.815-383.778-383.763 0-211.95 171.821-383.763 383.778-383.763s383.78 171.813 383.78 383.763c0 211.948-171.822 383.763-383.78 383.763zM511.701 99.641c-192.69 0-348.89 156.21-348.89 348.876 0 192.7 156.2 348.876 348.89 348.876s348.891-156.177 348.891-348.876c0-192.664-156.2-348.876-348.891-348.876zM703.592 448.517h-174.446v226.77c0 9.642-7.819 17.443-17.445 17.443-9.625 0-17.444-7.802-17.444-17.443v-244.213c0-9.625 7.819-17.443 17.444-17.443h191.891c9.625 0 17.445 7.819 17.445 17.443-0.003 9.641-7.82 17.443-17.445 17.443z" />
<glyph unicode="&#xe943;" glyph-name="new1" d="M522.4 930.4c-266.4 0-482.4-216-482.4-482.4s216-482.4 482.4-482.4c266.4 0 482.4 216 482.4 482.4s-216 482.4-482.4 482.4zM448 223.2c-36.8-33.6-93.6-32-127.2 4.8-32.8 36-29.6 92.8 7.2 126.4s93.6 32 127.2-4.8c33.6-36 30.4-92.8-7.2-126.4v0zM597.6 238.4c-7.2 61.6-32.8 120.8-77.6 169.6-47.2 51.2-107.2 83.2-172 94.4v71.2c84-12 163.2-51.2 224.8-117.6 56.8-62.4 88-139.2 96-217.6h-71.2zM773.6 238.4c-7.2 104.8-47.2 206.4-122.4 289.6-81.6 89.6-190.4 140-303.2 152v71.2c132.8-12 260-70.4 356-175.2 87.2-96 133.6-215.2 140.8-337.6h-71.2z" />
<glyph unicode="&#xe944;" glyph-name="jt" d="M512 862.476c-229.361 0-414.476-186.018-414.476-414.476s186.018-414.476 414.476-414.476 414.476 186.018 414.476 414.476-185.115 414.476-414.476 414.476zM658.286 425.425l-205.883-206.787c-6.321-6.321-14.448-9.030-22.575-9.030s-16.254 2.709-22.575 9.030c-12.642 12.642-12.642 32.508 0 45.15l184.212 184.212-183.309 181.503c-12.642 12.642-12.642 32.508 0 44.246 12.642 12.642 32.508 12.642 44.246 0l205.884-204.078c6.321-6.321 9.030-13.545 9.030-22.575 0-7.224-2.709-15.351-9.030-21.672z" />
<glyph unicode="&#xe945;" glyph-name="xw" d="M857.031 637.63l-189.63 193.043c-3.603 3.603-8.439 5.689-13.559 5.689h-428.089c-35.84 0-64.948-29.108-64.948-64.948v-646.827c0-35.84 29.108-64.948 64.948-64.948h571.828c35.84 0 64.948 29.108 64.948 64.948v499.769c0 4.93-1.991 9.766-5.499 13.274zM676.219 773.784l128.19-130.56h-96.996c-17.256 0-31.289 14.033-31.289 31.289v99.271zM828.871 124.587c0-17.256-14.033-31.289-31.289-31.289h-571.828c-17.256 0-31.289 14.033-31.289 31.289v646.827c0 17.256 14.033 31.289 31.289 31.289h416.806v-128.19c0-35.84 29.108-64.948 64.948-64.948h121.363v-484.978zM307.959 639.052h157.677c9.197 0 16.687 7.396 16.877 16.498 0.19 9.481-7.87 17.161-17.256 17.161h-157.298c-9.292 0-16.877-7.585-16.877-16.877s7.585-16.782 16.877-16.782zM307.959 553.244h157.677c9.197 0 16.687 7.396 16.877 16.498 0.19 9.481-7.87 17.161-17.256 17.161h-157.298c-9.292 0-16.877-7.585-16.877-16.877s7.585-16.782 16.877-16.782zM307.959 467.437h157.677c9.197 0 16.687 7.396 16.877 16.498 0.19 9.481-7.87 17.161-17.256 17.161h-157.298c-9.292 0-16.877-7.585-16.877-16.877s7.585-16.782 16.877-16.782zM291.271 351.479c0-9.292 7.585-16.877 16.877-16.877h407.040c9.197 0 16.687 7.396 16.877 16.498 0.19 9.481-7.87 17.161-17.256 17.161h-406.661c-9.387 0-16.877-7.49-16.877-16.782zM714.714 261.12h-406.566c-9.292 0-16.877-7.585-16.877-16.877s7.585-16.877 16.877-16.877h407.040c9.197 0 16.687 7.396 16.877 16.498 0.095 9.576-7.87 17.256-17.351 17.256z" />
<glyph unicode="&#xe946;" glyph-name="30" d="M868.086-35.712h-712.207c-44.59 0-80.891 36.296-80.891 80.911v805.596c0 44.611 36.301 80.911 80.891 80.911h543.232l249.907-254.408v-632.1c-0.005-44.616-36.301-80.911-80.932-80.911zM155.878 889.759c-21.484 0-38.948-17.464-38.948-38.963v-805.596c0-21.504 17.464-38.963 38.948-38.963h712.207c21.499 0 38.984 17.459 38.984 38.963v614.953l-225.551 229.606h-525.64zM237.486 727.936h237.727v-41.943h-237.727v41.943zM237.486 620.38h237.727v-41.948h-237.727v41.948zM237.486 512.829h237.727v-41.943h-237.727v41.943zM237.486 348.703h546.196v-41.943h-546.196v41.943zM237.486 210.012h546.196v-41.948h-546.196v41.948zM926.587 649.201h-170.711c-44.585 0-80.886 36.301-80.886 80.911v174.868h41.943v-174.868c0-21.504 17.464-38.963 38.938-38.963h170.711v-41.948z" />
<glyph unicode="&#xe947;" glyph-name="32" d="M1019.058 477.407c-128.245 158.809-313.121 249.901-507.214 249.901-193.892 0-378.635-90.936-506.902-249.5-3.183-3.94-4.942-8.882-4.942-13.98v-28.605c0-5.098 1.759-10.040 4.964-14.002 128.223-158.542 312.988-249.478 506.88-249.478 194.093 0 378.947 91.091 507.214 249.901 3.206 3.962 4.942 8.904 4.942 13.98v27.782c0 5.098-1.736 10.040-4.942 14.002zM979.478 443.57c-119.541-144.562-289.525-227.306-467.634-227.306-177.909 0-347.804 82.61-467.322 226.905v12.711c119.519 144.295 289.414 226.905 467.322 226.905 178.087 0 348.093-82.744 467.634-227.306v-11.91zM512 620.856c-94.453 0-171.297-76.845-171.297-171.32 0-94.453 76.845-171.297 171.297-171.297 25.956 0 50.911 5.654 74.129 16.807 11.086 5.32 15.761 18.61 10.418 29.696-5.32 11.086-18.655 15.716-29.696 10.418-17.163-8.237-35.617-12.422-54.829-12.422-69.921 0-126.776 56.877-126.776 126.776s56.877 126.798 126.776 126.798 126.776-56.877 126.776-126.798c0-11.887-1.647-23.641-4.875-34.95-3.384-11.821 3.45-24.131 15.271-27.537 11.776-3.361 24.131 3.45 27.537 15.271 4.385 15.293 6.589 31.165 6.589 47.215-0.022 94.475-76.867 171.342-171.32 171.342zM431.438 480.612c-3.829-9.928-5.766-20.391-5.766-31.076 0-6.144 4.986-11.13 11.13-11.13s11.13 4.986 11.13 11.13c0 7.947 1.425 15.716 4.274 23.062 9.483 24.531 33.503 41.005 59.793 41.005 6.144 0 11.13 4.986 11.13 11.13s-4.986 11.13-11.13 11.13c-35.417 0-67.784-22.194-80.562-55.251z" />
<glyph unicode="&#xe948;" glyph-name="moreto" horiz-adv-x="1025" d="M877.6 659.2c-56 97.6-147.2 167.2-256 196.8-224.8 60-456-73.6-516.8-298.4-60-224.8 73.6-456 298.4-516.8 36-9.6 72.8-14.4 109.6-14.4 76 0 151.2 20.8 218.4 61.6 9.6 6.4 12.8 19.2 7.2 28.8-6.4 9.6-19.2 12.8-28.8 7.2-89.6-54.4-194.4-69.6-295.2-42.4-202.4 54.4-322.4 262.4-268 464.8s262.4 322.4 464.8 268.8c97.6-26.4 180-88.8 230.4-176.8s64-190.4 37.6-288c-8.8-33.6-23.2-67.2-41.6-97.6-5.6-9.6-2.4-23.2 7.2-28.8 9.6-6.4 23.2-2.4 28.8 7.2 20.8 34.4 36.8 71.2 46.4 108.8 28.8 108 13.6 221.6-42.4 319.2v0 0 0zM327.2 448c0-17.6 14.4-32 32-32s32 14.4 32 32c0 17.6-14.4 32-32 32s-32-14.4-32-32zM480.8 448c0-17.6 14.4-32 32-32s32 14.4 32 32c0 17.6-14.4 32-32 32s-32-14.4-32-32zM634.4 448c0-17.6 14.4-32 32-32s32 14.4 32 32c0 17.6-14.4 32-32 32s-32-14.4-32-32z" />
<glyph unicode="&#xe949;" glyph-name="right" d="M369.6 76.8c-5.6 0-12 1.6-16.8 6.4-11.2 8.8-12 25.6-3.2 36l271.2 321.6-258.4 309.6c-8.8 11.2-8 27.2 3.2 36s27.2 8 36-3.2l272.8-325.6c8-9.6 8-23.2 0-32.8l-284.8-338.4c-5.6-6.4-12.8-9.6-20-9.6z" />
<glyph unicode="&#xe94a;" glyph-name="p1" d="M509.6 2.4l-336.8 197.6h244c8-44 46.4-80 92.8-80s84.8 33.6 92.8 80h244c-0.8 0.8-336.8-197.6-336.8-197.6zM470.4 887.2l-131.2-226.4c-10.4 2.4-20.8 4.8-31.2 4.8-51.2 0-95.2-44-95.2-95.2 0-28 12.8-53.6 31.2-69.6l-123.2-213.6v396c0 0.8 349.6 204 349.6 204zM509.6 311.2c-10.4 0-23.2-2.4-31.2-4.8l-110.4 190.4c15.2 12.8 28 31.2 33.6 53.6h218.4c4.8-20.8 17.6-40.8 33.6-53.6l-110.4-190.4c-11.2 2.4-20.8 4.8-33.6 4.8zM509.6 892l144-246.4c-20.8-15.2-33.6-38.4-36-64h-216c-2.4 25.6-15.2 48.8-36 64l144 246.4zM128.8 233.6l144 249.6c10.4-4.8 23.2-8 36-8 10.4 0 20.8 2.4 31.2 4.8l110.4-190.4c-17.6-15.2-28-33.6-33.6-56.8 0 0.8-288 0.8-288 0.8zM601.6 233.6c-4.8 23.2-15.2 44-33.6 56.8l110.4 190.4c10.4-2.4 20.8-4.8 31.2-4.8 12.8 0 25.6 2.4 36 8l144-249.6h-288zM897.6 288l-123.2 213.6c17.6 17.6 31.2 40.8 31.2 69.6 0 51.2-40.8 95.2-95.2 95.2-10.4 0-20.8-2.4-28-4.8l-131.2 226.4 347.2-203.2v-396.8h-0.8zM930.4 716.8l-408.8 239.2c-8 4.8-15.2 4.8-23.2 0l-408.8-239.2c-8-4.8-10.4-12.8-10.4-20.8v-480.8c0-8 4.8-15.2 10.4-20.8l408.8-239.2c2.4-2.4 8-2.4 10.4-2.4s8 0 10.4 2.4l408.8 239.2c8 4.8 10.4 12.8 10.4 20.8v480.8c2.4 8 0 16-8 20.8z" />
<glyph unicode="&#xe94b;" glyph-name="p3" d="M523.2 200l4 52h-358.4c-64.8 0-116.8 52.8-116.8 116.8 0 41.6 21.6 79.2 58.4 100.8 35.2 20.8 38.4 24.8 23.2 61.6-2.4 6.4-3.2 13.6-4 20 0 36 28.8 64.8 64.8 64.8 0 0 16.8 1.6 35.2-5.6 29.6-12 32.8-0.8 47.2 30.4 29.6 64 94.4 105.6 164.8 105.6 93.6 0 171.2-70.4 180-164.8 3.2-36.8 3.2-36.8 41.6-46.4 29.6-5.6 56.8-20.8 76.8-42.4l56 13.6c-28.8 41.6-73.6 70.4-123.2 80-11.2 118.4-110.4 211.2-231.2 211.2-94.4 0-174.4-56-212-136-11.2 4-23.2 5.6-35.2 5.6-64.8 0-116.8-52-116.8-116.8 0-12.8 2.4-24.8 6.4-36.8-50.4-29.6-84-83.2-84-145.6 0-93.6 75.2-168.8 168.8-168.8v0l354.4 0.8zM407.2 388.8l114.4-111.2 440 221.6-395.2-247.2-4-127.2 59.2 59.2 63.2-63.2 340 412-617.6-144z" />
<glyph unicode="&#xe94c;" glyph-name="p2" d="M417.6 355.2c0-6.4-4-12.8-9.6-15.2l-327.2-139.2c-4.8-2.4-11.2-1.6-15.2 1.6-4.8 3.2-7.2 8-7.2 13.6v368.8c0 5.6 2.4 10.4 7.2 13.6s10.4 4 15.2 1.6l327.2-136c6.4-2.4 10.4-8.8 10.4-15.2l-0.8-93.6zM417.6 40c0-5.6-2.4-10.4-7.2-13.6s-10.4-4-15.2-1.6l-263.2 104c-6.4 2.4-10.4 8-10.4 15.2 0 6.4 4 12.8 10.4 15.2l263.2 110.4c4.8 2.4 11.2 1.6 15.2-1.6 4.8-3.2 7.2-8 7.2-13.6v-214.4zM458.4 500l-421.6 176.8c-8 3.2-17.6 2.4-24.8-2.4s-12-13.6-12-22.4v-512.8c0-10.4 6.4-20 16-24.8l421.6-176.8c13.6-5.6 29.6 0.8 35.2 14.4 1.6 3.2 2.4 6.4 2.4 10.4v512.8c-0.8 11.2-7.2 20.8-16.8 24.8v0zM952.8 216c0-5.6-2.4-10.4-7.2-13.6s-10.4-4-15.2-1.6l-327.2 139.2c-6.4 2.4-10.4 8.8-10.4 15.2v93.6c0 6.4 4 12.8 10.4 15.2l327.2 136c4.8 2.4 11.2 1.6 15.2-1.6 4.8-3.2 7.2-8 7.2-13.6v-368.8zM877.6 128l-263.2-104c-4.8-2.4-11.2-1.6-15.2 1.6-4.8 3.2-7.2 8-7.2 13.6v213.6c0 5.6 2.4 10.4 7.2 13.6s10.4 4 15.2 1.6l263.2-110.4c6.4-2.4 10.4-8.8 10.4-15.2 0-5.6-4-12-10.4-14.4zM997.6 674.4c-7.2 4.8-16.8 5.6-24.8 2.4l-421.6-176.8c-9.6-4-16-13.6-16-24.8v-512.8c0-14.4 12-26.4 26.4-26.4 3.2 0 7.2 0.8 10.4 2.4l421.6 176.8c9.6 4 16 13.6 16 24.8v512.8c0 8-4 16.8-12 21.6zM843.2 740l-284.8-100.8c-11.2-4-24 1.6-28 13.6-0.8 2.4-1.6 4.8-1.6 7.2v210.4c0 12 9.6 21.6 21.6 21.6 0 0 0 0 0 0 2.4 0 5.6-0.8 8-1.6l284.8-109.6c8.8-3.2 14.4-11.2 14.4-20.8 0-8.8-5.6-16.8-14.4-20zM484.8 659.2c0-12-9.6-21.6-22.4-21.6-2.4 0-4.8 0.8-7.2 1.6l-284.8 101.6c-8.8 3.2-14.4 11.2-14.4 20s5.6 17.6 14.4 20.8l284.8 109.6c6.4 2.4 14.4 1.6 20-2.4s9.6-11.2 9.6-18.4v-211.2zM984.8 760c0 10.4-6.4 20-16 24l-450.4 174.4c-6.4 2.4-12.8 2.4-18.4 0l-449.6-174.4c-10.4-4-16-12.8-16-24 0-10.4 6.4-20 16-24l448.8-174.4c5.6-2.4 12.8-2.4 18.4 0l451.2 174.4c9.6 4 16 13.6 16 24v0z" />
<glyph unicode="&#xe94d;" glyph-name="a3" d="M294.4 879.2l408-408c12.8-12.8 12.8-33.6 0-46.4l-408-408c-12.8-12.8-33.6-12.8-46.4 0s-12.8 33.6 0 46.4l384.8 384.8-384.8 384.8c-12.8 12.8-12.8 33.6 0 46.4 6.4 6.4 15.2 9.6 23.2 9.6s16.8-3.2 23.2-9.6z" />
<glyph unicode="&#xe94e;" glyph-name="a1" d="M579.2 405.6c-1.6 0-3.2 0-4.8 0.8-4.8 1.6-8.8 4.8-11.2 8.8-4.8 8.8-12.8 16-20.8 20.8-27.2 16-63.2 6.4-79.2-20.8-2.4-4-6.4-7.2-11.2-8.8s-9.6-0.8-14.4 1.6l-104 60c-4 2.4-7.2 6.4-8.8 11.2s-0.8 9.6 1.6 14.4c4.8 8.8 8 18.4 8 28.8 0 32-25.6 57.6-57.6 57.6-4.8 0-9.6 2.4-12.8 5.6s-5.6 8-5.6 12.8v120c0 4.8 2.4 9.6 5.6 12.8s8 5.6 12.8 5.6c10.4 0 20 2.4 28.8 8 13.6 8 23.2 20 27.2 35.2s1.6 30.4-5.6 44c-2.4 4-3.2 9.6-1.6 14.4s4.8 8.8 8.8 11.2l104 60c4 2.4 9.6 3.2 14.4 1.6s8.8-4.8 11.2-8.8c8-14.4 28.8-28.8 49.6-28.8s40 11.2 49.6 28.8c2.4 4 6.4 7.2 11.2 8.8s9.6 0.8 14.4-1.6l104-60c4-2.4 7.2-6.4 8.8-11.2s0.8-9.6-1.6-14.4c-10.4-17.6-10.4-40 0-57.6s29.6-28.8 49.6-28.8c4.8 0 9.6-2.4 12.8-5.6s5.6-8 5.6-12.8v-120c0-4.8-2.4-9.6-5.6-12.8s-8-5.6-12.8-5.6c-10.4 0-20-2.4-28.8-8-13.6-8-23.2-20-27.2-35.2s-1.6-30.4 5.6-44c2.4-4 3.2-9.6 1.6-14.4s-4.8-8.8-8.8-11.2l-104-60c-2.4-0.8-5.6-2.4-8.8-2.4v0zM513.6 480.8c16 0 32-4 47.2-12.8 8.8-4.8 16.8-12 24-20l75.2 43.2c-5.6 17.6-6.4 36.8-1.6 55.2 6.4 24.8 22.4 44.8 44 57.6 8.8 4.8 18.4 8.8 28.8 11.2v88c-26.4 5.6-49.6 21.6-63.2 45.6s-16 52-7.2 77.6l-75.2 43.2c-17.6-20-44-32-71.2-32-28.8 0-54.4 14.4-71.2 32l-75.2-44c5.6-17.6 6.4-36.8 1.6-55.2-6.4-24.8-22.4-44.8-44-57.6-8.8-4.8-18.4-8.8-28.8-11.2v-87.2c18.4-3.2 35.2-12.8 48.8-25.6 17.6-17.6 28-41.6 28-67.2 0-10.4-1.6-20.8-4.8-30.4l75.2-43.2c16.8 21.6 42.4 32.8 69.6 32.8zM513.6 566.4c-51.2 0-93.6 41.6-93.6 93.6 0 51.2 41.6 93.6 93.6 93.6s93.6-41.6 93.6-93.6c-0.8-52-42.4-93.6-93.6-93.6zM513.6 716c-31.2 0-56-24.8-56-56s24.8-56 56-56 56 24.8 56 56c0 30.4-24.8 56-56 56zM330.4-16.8c-1.6 0-3.2 0-4.8 0.8-4.8 1.6-8.8 4.8-11.2 8.8-4 7.2-10.4 13.6-17.6 17.6-23.2 13.6-53.6 5.6-67.2-17.6-2.4-4-6.4-7.2-11.2-8.8s-9.6-0.8-14.4 1.6l-92.8 53.6c-8.8 4.8-12 16.8-7.2 24.8 4 7.2 6.4 16 6.4 24.8 0 27.2-22.4 49.6-49.6 49.6-10.4 0-18.4 8-18.4 18.4v107.2c0 10.4 8 18.4 18.4 18.4 8.8 0 16.8 2.4 24.8 6.4 11.2 6.4 20 17.6 23.2 29.6 3.2 12.8 1.6 25.6-4.8 37.6-4.8 8.8-2.4 20 7.2 24.8l92.8 53.6c4 2.4 9.6 3.2 14.4 1.6s8.8-4.8 11.2-8.8c6.4-12 24-24 42.4-24 17.6 0 33.6 9.6 42.4 24.8 2.4 4 6.4 7.2 11.2 8.8s9.6 0.8 14.4-1.6l92.8-53.6c4-2.4 7.2-6.4 8.8-11.2s0.8-9.6-1.6-14.4c-8.8-15.2-8.8-34.4 0-49.6s24.8-24.8 42.4-24.8v0c4.8 0 9.6-2.4 12.8-5.6s5.6-8 5.6-12.8v-106.4c0-4.8-2.4-9.6-5.6-12.8s-8-5.6-12.8-5.6c-8.8 0-17.6-2.4-24.8-6.4-23.2-13.6-32-44-18.4-67.2 4.8-8.8 2.4-20-7.2-24.8l-92.8-53.6c-2.4-2.4-5.6-3.2-8.8-3.2v0zM272 53.6c14.4 0 29.6-4 43.2-11.2 8-4.8 14.4-9.6 20.8-16.8l64 37.6c-12 37.6 3.2 80 39.2 100.8 7.2 4.8 16 7.2 24.8 9.6v73.6c-23.2 4.8-44 20-56 40.8s-15.2 46.4-7.2 69.6l-64 36.8c-16-17.6-39.2-28-64-28-25.6 0-48.8 12.8-63.2 28l-64.8-37.6c4.8-15.2 5.6-32 0.8-48.8-5.6-22.4-20-40.8-40-52-7.2-4.8-16-7.2-24.8-9.6v-74.4c38.4-8.8 68-43.2 68-84.8 0-8.8-1.6-17.6-4-25.6l64-37.6c16 20 39.2 29.6 63.2 29.6zM272 125.6c-47.2 0-84.8 38.4-84.8 84.8s38.4 84.8 84.8 84.8c47.2 0 84.8-38.4 84.8-84.8s-37.6-84-83.2-84.8h-1.6zM272 258.4c-26.4 0-48-21.6-48-48 0-25.6 20.8-47.2 46.4-48h1.6c26.4 0 48 21.6 48 48s-21.6 48-48 48zM813.6-15.2c-6.4 0-12.8 3.2-16 9.6-4 7.2-10.4 13.6-17.6 17.6-11.2 6.4-24.8 8-37.6 4.8s-23.2-11.2-29.6-23.2c-2.4-4-6.4-7.2-11.2-8.8s-9.6-0.8-14.4 1.6l-92.8 53.6c-4 2.4-7.2 6.4-8.8 11.2s-0.8 9.6 1.6 14.4c4 7.2 6.4 16 6.4 24.8 0 27.2-22.4 49.6-49.6 49.6-4.8 0-9.6 2.4-12.8 5.6s-5.6 8-5.6 12.8v107.2c0 4.8 2.4 9.6 5.6 12.8s8 5.6 12.8 5.6c8.8 0 17.6 2.4 24.8 6.4 11.2 6.4 20 17.6 23.2 29.6s1.6 25.6-4.8 37.6c-2.4 4-3.2 9.6-1.6 14.4s4.8 8.8 8.8 11.2l92.8 53.6c4 2.4 9.6 3.2 14.4 1.6s8.8-4.8 11.2-8.8c6.4-12 24-24 42.4-24 17.6 0 33.6 9.6 42.4 24.8 2.4 4 6.4 7.2 11.2 8.8s9.6 0.8 14.4-1.6l92.8-53.6c4-2.4 7.2-6.4 8.8-11.2s0.8-9.6-1.6-14.4c-8.8-15.2-8.8-34.4 0-49.6s24.8-24.8 42.4-24.8c4.8 0 9.6-2.4 12.8-5.6s5.6-8 5.6-12.8v-107.2c0-4.8-2.4-9.6-5.6-12.8s-8-5.6-12.8-5.6c-8.8 0-17.6-2.4-24.8-6.4-23.2-13.6-32-44-17.6-67.2 2.4-4 3.2-9.6 1.6-14.4s-4.8-8.8-8.8-11.2l-92.8-53.6c-3.2-1.6-6.4-2.4-9.6-2.4zM755.2 56c15.2 0 29.6-4 43.2-12 8-4.8 14.4-9.6 20.8-16.8l64 36.8c-12 37.6 3.2 80 39.2 100.8 8 4.8 16 7.2 24.8 9.6v74.4c-23.2 4.8-44 20-56 40.8s-15.2 46.4-7.2 69.6l-64 36.8c-16-17.6-39.2-28-64-28-25.6 0-48.8 12.8-63.2 28l-64-37.6c4.8-15.2 5.6-32 0.8-48.8-5.6-22.4-20-40.8-40-52-8-4.8-16-7.2-24.8-9.6v-74.4c38.4-8.8 68-43.2 68-84 0-8.8-1.6-17.6-4-26.4l64-36.8c11.2 12 24.8 20.8 41.6 24.8 5.6 4 13.6 4.8 20.8 4.8zM755.2 127.2c-47.2 0-84.8 38.4-84.8 84.8s38.4 84.8 84.8 84.8 84.8-38.4 84.8-84.8-38.4-84.8-84.8-84.8zM755.2 260c-26.4 0-48-21.6-48-48s21.6-48 48-48c26.4 0 48 21.6 48 48 0 27.2-21.6 48-48 48z" />
<glyph unicode="&#xe94f;" glyph-name="a2" d="M294.4 192v384c0 19.2 12.8 32 32 32h320c19.2 0 32-12.8 32-32s-12.8-32-32-32h-288v-352c0-19.2-12.8-32-32-32s-32 12.8-32 32zM83.2 6.4v832c0 19.2 12.8 32 32 32h320c19.2 0 32-12.8 32-32v-256c0-19.2-12.8-32-32-32s-32 12.8-32 32v224h-256v-800c0-19.2-12.8-32-32-32s-32 12.8-32 32zM659.2 851.2v-281.6c0 0-32-38.4-64 0v326.4c0 0 0 19.2 19.2 19.2h268.8c0 0 32 0 32-32v-185.6c0 0-25.6-38.4-64 0v153.6h-192zM800-25.6c-12.8 0-19.2 6.4-25.6 12.8s-38.4 32-57.6 32-51.2-25.6-57.6-32c-6.4-6.4-19.2-12.8-25.6-12.8h-12.8l-70.4 38.4c-12.8 6.4-19.2 25.6-12.8 38.4 0 0 6.4 12.8 6.4 25.6 0 38.4-32 70.4-70.4 70.4-12.8 0-19.2 12.8-25.6 25.6 0 0-6.4 32-6.4 57.6s6.4 51.2 6.4 57.6c0 19.2 12.8 32 19.2 32 44.8 0 76.8 32 76.8 70.4 0 12.8-6.4 25.6-6.4 25.6-6.4 12.8 0 32 12.8 38.4l70.4 38.4h12.8c12.8 0 19.2-6.4 25.6-12.8s38.4-32 57.6-32 51.2 25.6 57.6 32c6.4 6.4 19.2 12.8 25.6 12.8h12.8l70.4-38.4c12.8-6.4 19.2-25.6 12.8-38.4 0 0-6.4-12.8-6.4-25.6 0-38.4 32-70.4 70.4-70.4 12.8 0 19.2-12.8 25.6-25.6 0 0 6.4-32 6.4-57.6s-6.4-51.2-6.4-57.6c0-12.8-12.8-25.6-25.6-25.6-38.4 0-70.4-32-70.4-70.4 0-12.8 6.4-25.6 6.4-25.6 6.4-12.8 0-32-12.8-38.4l-70.4-38.4c0-6.4-6.4-6.4-12.8-6.4zM800 6.4l70.4 38.4c0 6.4-6.4 19.2-6.4 38.4 0 57.6 44.8 102.4 102.4 102.4 0 6.4 6.4 32 6.4 44.8 0 19.2-6.4 44.8-6.4 44.8-57.6 0-102.4 51.2-102.4 102.4 0 19.2 6.4 38.4 6.4 38.4l-64 38.4c0 0-12.8-12.8-25.6-19.2-19.2-12.8-38.4-19.2-57.6-19.2s-38.4 6.4-57.6 19.2c-19.2 19.2-25.6 32-25.6 32l-70.4-38.4c0 0 6.4-19.2 6.4-38.4 0-57.6-44.8-102.4-102.4-102.4 0-6.4-6.4-32-6.4-44.8 0-19.2 6.4-44.8 6.4-44.8 57.6 0 102.4-51.2 102.4-102.4 0-19.2-6.4-38.4-6.4-38.4l64-38.4c0 0 12.8 12.8 25.6 19.2 19.2 12.8 38.4 25.6 57.6 25.6s38.4-6.4 57.6-25.6c12.8-19.2 25.6-32 25.6-32zM716.8 140.8c-51.2 0-96 44.8-96 96s44.8 96 96 96c51.2 0 96-44.8 96-96s-44.8-96-96-96zM716.8 300.8c-32 0-64-25.6-64-64 0-32 25.6-64 64-64s64 25.6 64 64c0 32-32 64-64 64z" />
<glyph unicode="&#xe950;" glyph-name="210" d="M896 326.4h-864c-19.2 0-32-12.8-32-32v-243.2c0-19.2 12.8-32 32-32h864c19.2 0 32 12.8 32 32v243.2c0 19.2-6.4 32-32 32zM864 83.2h-800v179.2h800v-179.2zM768 121.6c25.6 0 51.2 25.6 51.2 51.2s-25.6 51.2-51.2 51.2-51.2-25.6-51.2-51.2 19.2-51.2 51.2-51.2zM768 192c12.8 0 19.2-12.8 19.2-19.2s-6.4-19.2-19.2-19.2c-6.4 0-19.2 6.4-19.2 19.2 0 6.4 6.4 19.2 19.2 19.2zM460.8 384c6.4-6.4 6.4-6.4 12.8-6.4s6.4 0 12.8 6.4l128 179.2c6.4 6.4 0 19.2-6.4 25.6s-6.4 6.4-12.8 6.4h-83.2v236.8c0 25.6-19.2 44.8-44.8 44.8s-44.8-19.2-44.8-44.8v-236.8h-83.2c-6.4 0-12.8-6.4-19.2-12.8-6.4-12.8-6.4-12.8 0-19.2l140.8-179.2z" />
<glyph unicode="&#xe951;" glyph-name="aa1" d="M256 896.8h128v-896h-128c0 0 0 896 0 896zM384 768.8h128v-640h-128v640zM512 640.8h128v-384h-128v384zM640 512.8h128v-128h-128v128z" />
<glyph unicode="&#xe952;" glyph-name="add" d="M473.6 595.2v-108h-342.4c-24.8 0-45.6-20-45.6-45.6 0-24.8 20-45.6 45.6-45.6h342.4v-342.4c0-24.8 20-45.6 45.6-45.6 24.8 0 45.6 20 45.6 45.6v342.4h342.4c24.8 0 45.6 20 45.6 45.6 0 24.8-20 45.6-45.6 45.6h-342.4v342.4c0 24.8-20 45.6-45.6 45.6-24.8 0-45.6-20-45.6-45.6v-234.4z" />
</font>
</defs>
</svg>
