<svg width="178" height="24" viewBox="0 0 178 24" fill="none" xmlns="http://www.w3.org/2000/svg">
<g clip-path="url(#clip0_362_11648)">
<path d="M153.606 6.72614H162.707V24.0002H168.206V21.9745V6.72614H177.307V3.70459H153.606V6.72614Z" fill="#8991A2"/>
<path d="M122.992 6.7349V6.73943C122.076 5.74813 120.817 4.99955 119.215 4.49142C117.564 3.96968 115.561 3.70654 113.206 3.70654H111.759C109.402 3.70654 107.399 3.96741 105.75 4.49142C104.149 4.99955 102.887 5.74813 101.969 6.73943V6.7349C101.313 7.45399 100.818 8.3228 100.487 9.33906C100.152 10.3735 99.9814 11.5735 99.9814 12.9345C99.9814 15.2302 100.245 17.1447 100.771 18.6782C101.279 20.1572 102.034 21.2892 103.042 22.0786H103.044C103.842 22.7024 104.94 23.1765 106.338 23.4963C107.776 23.8275 109.532 23.9931 111.598 23.9931H113.365C115.434 23.9931 117.187 23.8275 118.626 23.4963C120.023 23.1765 121.121 22.7024 121.919 22.0786H121.922C122.929 21.2892 123.684 20.1572 124.192 18.6782C124.719 17.1447 124.982 15.2302 124.982 12.9345C124.982 11.5712 124.812 10.3735 124.476 9.33906C124.145 8.3228 123.65 7.45399 122.99 6.7349H122.992ZM119.152 17.2536C118.914 18.254 118.544 19.0162 118.043 19.547L118.038 19.5515C117.55 20.0551 116.868 20.4271 115.992 20.6676C115.166 20.8944 114.164 21.0101 112.989 21.0101H112.478H111.972H111.97C110.795 21.0101 109.795 20.8967 108.967 20.6676C108.091 20.4271 107.408 20.0551 106.921 19.5515L106.916 19.547C106.415 19.0185 106.045 18.254 105.807 17.2536C105.587 16.3258 105.476 15.1893 105.476 13.8419C105.476 12.3493 105.639 11.0926 105.97 10.074C106.319 8.98972 106.853 8.17535 107.567 7.63093C108.025 7.28159 108.629 7.02526 109.377 6.85966C110.085 6.70314 110.929 6.62375 111.911 6.62375H112.481H113.048H113.05C114.032 6.62375 114.876 6.70314 115.581 6.85966C116.33 7.02753 116.933 7.28386 117.392 7.62866C118.106 8.17535 118.639 8.98972 118.989 10.074C119.318 11.0948 119.483 12.3515 119.483 13.8419C119.483 15.1893 119.372 16.3258 119.152 17.2536Z" fill="#8991A2"/>
<path d="M29.2333 3.89699L28.0832 0.285645H0V3.89699H18.8302L0 20.3839V23.993H29.5962V20.3839H10.403L29.2333 3.89699Z" fill="#8991A2"/>
<path d="M70.809 1.8896C73.2 1.09338 75.6839 0.657845 78.1225 0.313043V0L64.8363 0.285822C64.0219 0.285822 63.4707 0.526276 63.2279 1.28847L60.8574 8.85596C63.4026 5.64613 66.8506 3.19395 70.809 1.8896Z" fill="#8991A2"/>
<path d="M60.2241 10.8815L58.6385 15.9378L54.5304 2.77865C53.9111 0.796041 52.6521 0.285645 50.7806 0.285645H46.2892L41.3825 15.9492L36.4895 0.285645H31.0566L38.4631 23.993H43.0566C45.3205 23.993 45.8831 23.4826 46.423 21.7631L50.7262 8.00058L55.7213 23.993H60.4895C62.7534 23.993 63.3183 23.4826 63.8536 21.7631L67.7803 9.20738C68.7149 6.52383 70.0396 4.92232 71.5844 3.83347C67.009 4.75899 63.0098 7.31778 60.2219 10.8815H60.2241Z" fill="#8991A2"/>
<path d="M127.418 10.4622V23.9934H132.926V15.2464H151.173V12.2271H132.926V10.6959C132.926 8.28682 134.221 6.72614 137.245 6.72614H151.173V3.70459H135.673C130.487 3.70459 127.418 6.00705 127.418 10.4622Z" fill="#8991A2"/>
<path d="M89.571 12.3246H82.8474C80.5971 12.3042 79.4811 11.0861 79.4811 9.5526C79.4811 8.14391 80.6107 6.71253 82.8928 6.71253L96.9276 6.73068V3.70459H81.6202C75.4795 3.70459 73.6512 6.75563 73.6603 9.5526C73.6444 12.3881 75.4841 15.3734 81.6202 15.3734H88.3302C90.5918 15.3893 91.7079 16.6074 91.7102 18.1454C91.7102 19.5518 90.5805 20.9855 88.2984 20.9855L74.2659 20.9651V23.9934H89.5733C95.7139 23.9934 97.5423 20.9424 97.5332 18.1454C97.5491 15.3099 95.7094 12.3246 89.5733 12.3246H89.571Z" fill="#8991A2"/>
</g>
<defs>
<clipPath id="clip0_362_11648">
<rect width="177.307" height="24" fill="white"/>
</clipPath>
</defs>
</svg>
